<svg width="300" height="275" viewBox="0 0 300 275" fill="none" xmlns="http://www.w3.org/2000/svg">
<g clip-path="url(#clip0_72_665)">
<path d="M268.261 96.3984C278.728 95.3855 289.533 95.7231 300.169 97.2425C290.039 101.463 279.572 104.502 269.105 106.19C269.105 102.983 268.936 99.6061 268.261 96.3984Z" fill="#EEBD2C"/>
<path d="M268.261 111.93C278.222 114.969 287.676 119.19 296.624 124.592C285.819 124.761 275.183 123.748 265.053 121.216C266.573 118.346 267.586 115.138 268.261 111.93Z" fill="#EEBD2C"/>
<path d="M262.015 126.28C269.612 132.864 276.365 140.461 281.936 149.071C272.144 145.02 263.196 139.786 255.262 133.54C257.794 131.345 260.158 128.981 262.015 126.28Z" fill="#EEBD2C"/>
<path d="M250.535 136.916C254.249 146.033 256.781 155.824 257.794 166.123C251.041 158.357 245.47 149.916 241.249 140.799C244.457 139.955 247.665 138.604 250.535 136.916Z" fill="#EEBD2C"/>
<path d="M235.509 141.981C234.665 151.941 232.47 162.071 228.756 171.863C226.224 161.902 225.211 151.773 225.549 141.812C228.925 142.319 232.302 142.319 235.509 141.981Z" fill="#EEBD2C"/>
<path d="M219.977 140.461C214.744 149.409 208.329 157.85 200.732 165.616C202.757 155.318 206.303 145.526 210.861 136.41C213.731 138.098 216.77 139.449 219.977 140.461Z" fill="#EEBD2C"/>
<path d="M206.303 132.864C197.862 139.28 188.576 144.682 178.616 149.071C184.862 140.293 191.953 132.358 199.888 125.436C201.745 128.306 203.77 130.67 206.303 132.864Z" fill="#EEBD2C"/>
<path d="M197.017 120.54C186.719 123.41 176.083 125.098 165.279 125.605C174.395 119.696 184.018 114.8 194.147 111.086C194.654 114.294 195.667 117.501 197.017 120.54Z" fill="#EEBD2C"/>
<path d="M193.641 105.346C183.174 104.333 172.876 101.97 162.915 98.4243C173.551 96.2296 184.356 95.2167 194.823 95.5543C193.979 98.762 193.641 102.138 193.641 105.346Z" fill="#EEBD2C"/>
<path d="M196.849 90.152C187.901 85.2561 179.629 79.1784 172.2 72.0878C182.836 73.9449 192.797 77.1525 202.082 81.7108C199.887 84.2431 198.03 87.1131 196.849 90.152Z" fill="#EEBD2C"/>
<path d="M205.796 77.3213C199.887 69.2178 195.16 60.2701 191.784 50.6472C200.394 56.7248 207.822 63.6466 213.9 71.5813C211.03 73.2696 208.329 75.1266 205.796 77.3213Z" fill="#EEBD2C"/>
<path d="M219.471 69.3866C217.952 59.5948 217.783 49.2966 219.133 39.1671C224.029 48.2836 227.406 57.7378 229.263 67.5296C225.886 67.6984 222.679 68.3737 219.471 69.3866Z" fill="#EEBD2C"/>
<path d="M235.003 67.5296C238.042 57.9066 242.6 48.4525 248.34 39.336C248.509 49.6342 247.327 59.9325 244.626 69.7243C241.587 68.5425 238.379 67.8672 235.003 67.5296Z" fill="#EEBD2C"/>
<path d="M250.028 72.0878C256.95 64.3219 265.054 57.2313 274.001 50.9848C269.781 60.6078 264.378 69.7243 257.963 77.9966C255.599 75.8019 252.898 73.776 250.028 72.0878Z" fill="#EEBD2C"/>
<path d="M261.677 82.3861C271.3 77.659 281.429 74.1137 292.065 71.5813C284.299 79.0096 275.689 85.5937 266.404 90.9961C265.222 87.7884 263.703 84.9184 261.677 82.3861Z" fill="#EEBD2C"/>
<path d="M268.936 90.4896C276.702 110.411 266.911 132.864 246.989 140.799C227.068 148.734 204.615 138.942 196.68 119.021C188.914 99.0996 198.706 76.646 218.627 68.7113C238.548 60.7766 261.171 70.5684 268.936 90.4896Z" fill="#EDB92B"/>
<path opacity="0.59" d="M239.561 67.5296C246.145 70.2307 249.691 82.8925 251.548 89.139C253.742 96.7361 252.392 106.021 247.158 112.437C237.704 124.086 217.783 124.93 208.835 112.774C202.758 104.502 200.056 90.4896 203.602 80.529C201.745 81.8796 201.238 84.9184 200.394 86.9443C199.381 89.4767 198.199 91.8402 197.524 94.5414C196.173 99.4373 196.511 103.827 197.524 108.554C199.888 118.346 204.108 127.8 212.212 134.046C220.146 140.124 227.912 141.474 237.704 139.955C241.756 139.28 246.483 136.916 250.197 135.059C254.249 133.033 258.132 128.981 260.495 125.267C267.079 115.476 267.924 102.814 264.378 92.1778C261.677 84.4119 255.937 75.2955 248.846 70.906C246.652 69.5554 242.093 66.3478 239.73 67.6984L239.561 67.5296Z" fill="#EDB92B"/>
<path opacity="0.39" d="M202.082 83.5678C201.069 86.6066 199.043 89.3078 198.031 92.5155C196.849 96.2296 197.186 100.281 197.524 104.164C198.199 112.437 200.901 120.371 206.472 126.618C209.004 129.488 213.056 133.202 217.276 130.501C220.653 128.306 220.484 122.397 220.315 119.021C219.978 107.878 219.133 97.5802 222.848 86.7755C224.367 82.5549 226.562 78.8408 229.938 75.8019C232.302 73.6072 235.003 73.2696 237.535 71.7502C240.068 70.2307 238.886 69.7243 236.354 69.049C234.496 68.3737 232.133 67.8672 230.107 67.8672C221.497 68.036 212.381 72.0878 206.303 78.3343C203.264 81.5419 201.913 85.4249 199.381 88.9702L202.082 83.5678Z" fill="#EDB92B"/>
<path opacity="0.39" d="M200.056 87.9572C196.005 91.6714 197.017 102.645 197.862 107.372C198.368 109.904 202.251 123.41 207.147 118.346C209.51 115.813 207.653 109.904 207.485 107.203C207.147 103.151 206.978 99.0996 207.316 95.0479C207.653 88.4637 209.51 81.8796 214.406 76.8149C215.25 75.9708 216.263 74.9578 217.108 74.2825C213.393 74.9578 208.666 79.1784 205.965 81.5419C203.433 83.9055 198.706 88.1261 199.043 91.8402L200.056 87.9572Z" fill="#F0C95A"/>
<path d="M111.255 103.658L124.761 106.528L128.475 91.3337L115.138 88.4637C115.307 82.5549 114.294 76.9837 112.099 71.7501L122.228 65.3348L113.281 52.3354L102.983 58.7507C99.6061 55.3742 95.3855 52.673 90.8272 50.6471L93.5284 40.0112L77.4901 36.4659L74.9578 46.7642C70.2307 46.5954 65.5036 47.1018 60.9454 48.4524L54.0236 38.323L40.1801 46.933L46.2577 55.7119C41.193 59.5948 36.9724 64.6595 34.1024 70.5684L22.7912 68.2048L19.0771 83.399L30.2195 85.7625C30.0506 91.3337 30.8948 96.7361 33.0895 101.801L23.1289 108.047L32.0765 121.047L41.8683 114.969C45.5824 118.683 50.1407 121.891 55.3742 123.917L52.3354 135.903L68.3737 139.449L71.2437 127.631C77.1525 127.8 82.7237 126.787 87.9572 124.761L95.5543 135.228L109.06 126.28L101.801 116.32C105.684 112.774 108.891 108.554 111.255 103.658ZM66.5166 109.398C54.6989 106.866 47.4395 95.0478 50.4783 83.2302C53.5172 71.2437 65.5037 63.6466 77.3213 66.3478C89.139 68.8801 96.3984 80.6978 93.3596 92.6843C90.3208 104.502 78.3343 112.099 66.5166 109.398Z" fill="#284112"/>
<path d="M112.099 100.281L125.605 103.151L129.319 87.9572L115.813 85.0872C115.982 79.1784 114.969 73.6072 112.774 68.3737L122.904 61.9584L114.125 48.9589L103.827 55.3742C100.45 51.9977 96.2296 49.2966 91.6713 47.2707L94.3725 36.6348L78.3343 33.0895L75.8019 43.3877C71.0748 43.2189 66.3478 43.7254 61.7895 45.076L54.8677 34.9465L41.0242 43.5566L47.1018 52.3354C42.0371 56.2183 37.6477 61.2831 34.9465 67.1919L23.6353 65.166L19.9212 80.3602L31.0636 82.7237C30.8948 88.2949 31.7389 93.6972 33.7648 98.762L23.8042 105.008L32.7518 118.008L42.5436 111.93C46.2577 115.644 50.816 118.852 56.0495 120.878L53.1795 132.527L69.2178 136.072L72.0878 124.254C77.9966 124.423 83.5678 123.41 88.8013 121.384L96.3984 131.851L109.904 122.904L102.645 112.943C106.697 109.229 109.736 105.008 112.099 100.281ZM67.3607 106.021C55.543 103.489 48.2836 91.6714 51.3224 79.8537C54.3613 67.8672 66.3478 60.2701 78.1654 62.9713C89.9831 65.5037 97.2425 77.3213 94.2037 89.139C91.3337 100.957 79.1784 108.554 67.3607 106.021Z" fill="#4B711D"/>
<path opacity="0.45" d="M100.113 62.296C99.0996 61.9584 96.3984 63.4778 95.892 64.4907C95.0478 66.179 96.9049 69.3866 97.4114 70.906C99.6061 77.4902 102.138 84.0743 101.463 90.9961C100.957 96.7361 97.749 102.307 93.5284 106.359C91.5025 108.385 88.9702 110.073 86.6067 111.593C85.0872 112.606 81.0355 113.956 80.3602 115.644C82.2172 116.826 84.9184 116.151 86.7755 115.644C89.8143 114.969 91.8402 113.956 94.2037 112.099C98.4243 108.723 101.463 105.177 104.502 100.788C108.891 94.5414 111.761 86.1002 110.917 78.6719C110.58 75.1266 110.242 70.5684 108.047 67.6984C107.034 66.3478 105.684 65.3348 104.164 64.3219C102.983 63.6466 101.126 62.1272 100.113 62.1272V62.296Z" fill="#72A72E"/>
<path opacity="0.45" d="M59.5948 48.1148C58.2442 48.9589 56.556 49.6342 55.2054 50.3095C53.3484 51.3225 51.6601 52.5042 49.9719 53.686C46.0889 56.3872 42.8813 59.7637 40.1801 63.4778C35.453 69.8931 33.2583 79.1784 34.2713 87.1131C34.7777 90.4896 35.6219 93.6973 36.9724 96.9049C37.8166 98.762 39.8424 102.983 42.206 103.32C43.2189 102.138 42.3748 99.9437 42.206 98.5931C41.8683 96.2296 41.8683 93.8661 41.8683 91.5025C41.8683 85.4249 43.0501 79.3472 45.5825 73.776C47.7772 68.7113 50.6472 63.9842 55.8807 61.2831C59.426 59.5948 63.1401 59.0884 66.179 56.556C68.8802 54.3613 69.8931 51.4913 67.0231 48.7901C65.166 46.933 62.1272 47.946 59.5948 48.1148Z" fill="#72A72E"/>
<path d="M23.973 104.84L23.1288 108.385L32.0765 121.216L32.9206 117.839L23.973 104.84Z" fill="#71A229"/>
<path d="M96.5673 131.683L95.7231 135.059L109.229 126.111L109.567 122.566L96.5673 131.683Z" fill="#71A229"/>
<path d="M88.9702 121.216L88.126 124.761L95.7231 135.059L96.5672 131.683L88.9702 121.216Z" fill="#71A229"/>
<path d="M122.904 61.9584L122.735 64.9972L114.125 70.3996L113.112 67.8672L122.904 61.9584Z" fill="#71A229"/>
<path d="M40.1801 47.1018L41.0242 43.7254L47.1018 52.673L44.9071 54.1924L40.1801 47.1018Z" fill="#71A229"/>
<path opacity="0.3" d="M59.2571 49.1277C56.8936 49.803 52.8418 52.5042 50.4783 54.1925C47.6083 56.0495 45.0759 58.4131 43.2189 61.1142C41.193 63.9842 33.2583 76.9837 37.1412 79.6849C39.3359 75.8019 40.6865 71.4125 43.3877 67.5295C46.4265 63.4778 49.9718 59.9325 54.3613 57.0625C56.7248 55.3742 61.6207 54.0236 62.9713 51.6601C64.4907 48.9589 60.1013 47.946 58.5819 49.6342L59.2571 49.1277Z" fill="#F3F4F4"/>
<path opacity="0.3" d="M100.957 65.5037C98.9308 66.179 103.489 72.2566 103.827 73.776C105.177 78.3343 105.346 83.7366 104.333 88.4637C102.814 96.5673 100.619 103.489 95.7231 110.073C95.3855 110.411 95.0479 110.748 94.879 111.086C100.45 108.047 104.333 100.113 106.359 94.5414C108.554 88.4637 109.736 82.0484 109.398 75.8019C109.229 73.1007 105.008 59.7637 100.788 65.6725L100.957 65.5037Z" fill="#F3F4F4"/>
<path opacity="0.28" d="M68.3736 120.203C65.166 124.93 60.6077 129.657 54.6989 131.345C59.0883 131.007 63.3089 133.033 67.5295 133.033C68.7113 130.501 69.7242 127.293 70.5684 124.592C70.906 123.579 72.0878 121.384 71.7501 120.54C71.2437 119.021 69.3866 119.021 68.3736 120.203Z" fill="#F1F1F3"/>
<path d="M163.084 53.0107L170.006 56.8936L174.901 49.1277L167.98 45.2448C169.161 42.0371 169.668 38.6607 169.33 35.453L176.083 33.596L173.551 24.9859L166.629 26.843C165.278 24.4795 163.59 22.2848 161.396 20.2589L164.772 14.8565L156.668 10.1294L153.292 15.5318C150.591 14.6877 147.89 14.1812 145.188 14.1812L143.331 7.42825L134.215 9.96061L135.903 15.8694C132.358 17.22 129.15 19.2459 126.449 22.1159L120.709 18.9083L115.813 26.6742L121.553 29.8818C120.371 32.9207 120.034 36.1283 120.203 39.1671L113.618 41.0242L116.151 49.803L122.735 48.1148C124.085 50.816 126.111 53.3483 128.475 55.3742L124.761 61.4519L132.864 66.0101L136.578 59.9325C139.786 60.9454 143.163 61.2831 146.37 61.1142L148.734 68.2048L157.85 65.5037L155.656 58.7507C158.357 57.0625 160.889 55.2054 163.084 53.0107ZM137.423 48.7901C131.345 45.4136 129.488 37.6477 133.371 31.5701C137.254 25.4924 145.188 23.1289 151.266 26.6742C157.344 30.0506 159.201 37.8165 155.318 43.8942C151.435 49.9719 143.5 52.1666 137.423 48.7901Z" fill="#2A4915"/>
<path d="M164.266 51.1536L171.187 55.0366L176.083 47.2707L169.161 43.3877C170.343 40.1801 170.85 36.8036 170.512 33.596L177.265 31.7389L174.733 23.1289L167.811 24.9859C166.46 22.6224 164.772 20.4277 162.577 18.4018L165.954 12.9994L157.85 8.4412L154.474 13.8436C151.941 12.9994 149.071 12.493 146.37 12.493L144.513 5.74002L135.397 8.27238L137.085 14.1812C133.54 15.5318 130.332 17.5577 127.631 20.4277L121.891 17.22L116.995 24.9859L122.735 28.1936C121.553 31.2324 121.215 34.4401 121.384 37.4789L114.8 39.336L117.333 47.946L123.917 46.2577C125.267 48.9589 127.293 51.4913 129.657 53.5172L125.943 59.426L134.046 63.9843L137.76 57.9066C140.968 58.9195 144.344 59.2572 147.552 59.0884L149.916 66.179L159.032 63.4778L156.837 56.7248C159.538 55.2054 162.071 53.5172 164.266 51.1536ZM138.436 46.933C132.358 43.5566 130.501 35.7907 134.384 29.713C138.267 23.6354 146.201 21.4406 152.279 24.8171C158.357 28.1936 160.214 35.9595 156.331 42.0372C152.617 48.1148 144.513 50.3095 138.436 46.933Z" fill="#79B82F"/>
<path opacity="0.3" d="M164.434 28.1936C163.928 27.8559 162.24 28.1936 161.733 28.7001C161.058 29.5442 161.396 31.5701 161.396 32.583C161.396 36.6348 161.564 40.6866 159.876 44.4007C158.526 47.4395 155.824 49.9719 152.617 51.4913C151.097 52.1666 149.409 52.8419 147.721 53.1795C146.708 53.5172 144.176 53.5172 143.5 54.3613C144.344 55.2054 145.864 55.3742 147.046 55.3742C148.734 55.5431 150.084 55.3742 151.773 54.6989C154.811 53.5172 157.006 51.9978 159.539 50.1407C163.084 47.4395 166.291 43.2189 167.136 38.8295C167.642 36.8036 168.149 34.2713 167.642 32.2454C167.304 31.2324 166.798 30.5571 166.123 29.713C165.954 29.3754 165.279 28.1936 164.434 28.1936Z" fill="#F1F1F3"/>
<path opacity="0.3" d="M144.851 13.5059C144.007 13.8436 142.994 13.8436 141.981 14.0124C140.799 14.1812 139.617 14.6877 138.436 15.0253C135.734 15.8695 133.371 17.22 131.176 18.9083C127.293 21.7783 124.423 26.5054 123.579 31.0636C123.241 33.0895 123.073 34.9466 123.241 36.9724C123.41 38.1542 123.748 40.8554 124.93 41.3619C125.605 40.8554 125.605 39.5048 125.774 38.8295C126.111 37.4789 126.449 36.1283 126.956 34.7777C128.137 31.4013 129.826 28.1936 132.189 25.4924C134.384 22.9601 136.747 20.9342 140.124 20.2589C142.318 19.9212 144.513 20.2589 146.708 19.4148C148.565 18.5706 149.747 17.22 148.565 15.1942C148.059 13.6747 146.201 13.8436 144.851 13.5059Z" fill="#F1F1F3"/>
<path d="M114.631 39.1671L113.618 40.8554L116.151 49.6342L117.164 47.7772L114.631 39.1671Z" fill="#41681A"/>
<path d="M149.916 66.0101L148.734 67.8672L157.85 64.9972L158.694 63.1401L149.916 66.0101Z" fill="#41681A"/>
<path d="M147.552 59.0884L146.37 60.7766L148.734 67.8672L149.916 66.0101L147.552 59.0884Z" fill="#41681A"/>
<path d="M177.265 31.7389L176.59 33.4271L170.85 34.9465L170.681 33.4271L177.265 31.7389Z" fill="#41681A"/>
<path d="M134.215 9.79178L135.397 8.10355L137.085 14.0124L135.566 14.35L134.215 9.79178Z" fill="#41681A"/>
<path opacity="0.3" d="M144.344 14.0124C142.994 14.0124 140.124 14.8565 138.435 15.363C136.578 16.0383 134.721 16.8824 133.202 18.0642C131.514 19.2459 124.761 25.3236 126.449 27.3495C128.306 25.4924 129.825 23.2977 132.189 21.6095C134.553 19.7524 137.254 18.5706 140.124 17.5577C141.643 17.0512 144.682 17.0512 145.864 16.0383C147.214 14.8565 145.02 13.5059 143.838 14.1812L144.344 14.0124Z" fill="#F3F4F4"/>
<path opacity="0.3" d="M164.434 30.0507C163.253 30.0507 164.603 34.2713 164.603 35.1154C164.603 37.8166 163.59 40.8554 162.24 43.3877C159.876 47.6083 157.513 51.1536 153.461 54.0237C153.292 54.1925 152.954 54.3613 152.786 54.3613C156.5 53.5172 160.045 49.8031 162.24 47.1019C164.603 44.063 166.291 40.6866 167.304 37.1413C167.642 35.6219 167.811 27.5183 164.434 30.0507Z" fill="#F3F4F4"/>
<path opacity="0.28" d="M136.41 55.0366C133.877 57.2313 130.332 58.9195 126.787 58.9195C129.319 59.426 131.176 61.2831 133.54 61.9584C134.721 60.7766 135.734 59.0884 136.747 57.7378C137.085 57.2313 138.098 56.2184 138.098 55.7119C138.267 54.8678 137.085 54.5301 136.41 55.0366Z" fill="#F1F1F3"/>
<path opacity="0.45" d="M81.7108 38.1542C81.5419 38.9983 80.529 41.6995 80.1913 43.2189C80.0225 44.063 79.516 45.4136 79.8537 46.4266C80.1913 47.2707 81.3731 47.2707 81.5419 47.946C82.5549 51.4913 76.3084 51.1536 77.659 54.8678C78.8408 57.9066 84.0743 60.6078 86.269 62.9713C88.8014 65.5037 91.1649 68.3737 92.8531 71.4125C96.3984 78.1655 97.0737 85.7625 94.3726 93.022C92.1778 98.762 88.9702 105.515 82.3861 107.203C76.8149 108.554 68.7113 108.216 63.309 106.528C59.9325 105.515 57.7378 103.32 54.8678 101.632C50.9848 99.2684 51.8289 104.84 53.0107 107.372C55.5431 112.774 61.4519 115.982 67.3607 116.151C69.7243 116.32 72.0878 115.644 74.4513 116.151C77.1525 116.826 79.0096 117.839 81.8796 118.008C94.0349 118.514 99.9437 110.073 105.684 100.788C110.242 93.3596 112.606 85.4249 113.112 76.8149C113.281 73.2696 112.268 70.7372 111.761 67.3607C111.255 63.8154 113.787 62.6337 114.463 59.426C114.969 56.7248 114.463 53.5172 111.086 54.1925C108.216 54.6989 105.346 59.2572 101.97 57.0625C100.281 56.0495 99.2684 53.1795 97.2426 51.8289C95.3855 50.6472 91.5025 50.1407 90.3208 48.1148C88.8014 45.7513 91.5025 42.8813 89.3078 40.6866C87.6196 38.9983 83.7366 38.6607 81.5419 39.336L81.7108 38.1542Z" fill="#72A72E"/>
<path d="M56.7248 99.9437C56.7248 95.5543 56.8936 90.8272 58.9195 86.6066C60.6077 83.2302 63.6466 80.6978 67.6983 78.8407C69.3866 78.1655 71.0748 77.3213 72.7631 76.4772C73.4384 76.1396 73.9448 75.6331 74.6201 75.2954C75.1266 77.659 75.8019 80.3602 74.9578 82.8925C73.9448 86.4378 72.0878 89.9831 68.8801 92.6843C67.8672 93.5284 58.0754 100.788 56.8936 99.4373L56.7248 99.9437Z" fill="#487F1E"/>
<path opacity="0.2" d="M74.4513 75.9707C73.776 78.6719 70.7372 80.8666 68.3736 83.0613C65.8413 85.5937 64.153 88.2949 62.6336 91.3337C61.6207 93.1908 60.1013 94.879 58.7507 96.5672C58.0754 97.5802 57.7377 98.5931 57.0624 99.4373C59.7636 98.0867 61.9583 96.7361 64.3219 95.2167C66.6854 93.6972 68.8801 92.1778 70.7372 89.9831C73.6072 86.4378 75.1266 82.8925 75.1266 78.8407C75.1266 77.9966 75.6331 75.4643 74.6201 75.1266V75.9707H74.4513Z" fill="#B3D45C"/>
<path opacity="0.2" d="M74.2825 75.8019C73.6072 76.8149 73.1007 77.8278 72.2566 78.8407C71.4125 79.6849 70.5683 80.3602 69.7242 81.2043C67.8672 83.0613 66.1789 84.7496 64.9972 86.9443C63.9842 88.8013 63.3089 90.8272 61.9583 92.5155C60.6077 94.2037 59.0883 95.892 58.0754 97.749C57.7377 98.4243 57.4001 99.0996 56.8936 99.6061C56.0495 98.4243 56.3871 95.7231 56.7248 94.3725C57.0624 92.6843 57.9066 90.8272 58.5819 89.139C58.5819 89.4766 58.2442 90.8272 58.7507 90.9961C59.7636 91.5025 60.7766 89.8143 61.1142 89.3078C61.9583 88.1261 62.8025 86.9443 63.6466 85.9313C64.4907 84.9184 65.6725 84.2431 66.6854 83.2302C67.5295 82.386 67.8672 81.3731 68.8801 80.529C69.7242 79.8537 70.7372 79.3472 71.5813 78.6719C72.7631 77.8278 74.2825 76.8149 74.6201 75.6331C74.4513 75.6331 74.1136 75.6331 73.9448 75.8019H74.2825Z" fill="#467C1D"/>
<path opacity="0.2" d="M74.2825 76.9837C73.9448 79.1784 70.7372 81.3731 69.0489 83.0613C68.036 84.0743 66.1789 86.4378 66.8542 87.7884C67.6983 89.139 69.7242 87.9572 70.5683 87.2819C73.776 84.4119 74.2825 80.6978 74.2825 76.9837Z" fill="#B3D45C"/>
<path opacity="0.2" d="M74.2825 75.8019C73.2695 76.4772 72.7631 77.4902 71.9189 78.3343C71.0748 79.1784 69.8931 80.0225 69.0489 81.0354C67.5295 82.7237 66.1789 84.4119 65.166 86.269C64.153 87.9572 63.1401 89.6455 62.1272 91.1649C61.1142 92.6843 59.7636 94.0349 58.5819 95.3855C57.7377 96.3984 57.0624 97.749 56.7248 98.9308C56.556 97.4114 56.3871 95.8919 56.8936 94.2037C57.2313 92.8531 58.2442 91.1649 58.413 89.8143C58.7507 90.3208 57.9066 91.8402 58.413 92.3466C59.0883 92.8531 61.1142 90.4896 61.6207 89.9831C63.8154 87.9572 65.3348 86.1002 67.0231 83.9055C68.2048 82.2172 69.7242 80.6978 71.4125 79.1784C72.4254 78.1654 74.2825 76.8149 74.6201 75.6331C74.4513 75.6331 74.2825 75.6331 74.2825 75.4643V75.8019Z" fill="#467C1D"/>
<path opacity="0.5" d="M60.2701 85.0872C59.9324 85.0872 61.1142 87.2819 61.283 87.9572C61.4518 88.9702 61.4518 90.3208 61.283 91.5025C61.1142 93.1908 59.9324 94.3725 58.9195 95.8919C59.2571 93.5284 64.153 93.0219 66.5166 92.1778C69.0489 91.1649 71.2436 89.8143 72.5942 87.9572C71.2436 89.6455 68.8801 90.3208 66.8542 91.3337C65.166 92.009 62.9713 92.3467 61.6207 93.1908C62.1271 91.6714 62.6336 90.1519 62.296 88.6325C61.9583 87.2819 60.1013 85.9313 60.2701 84.5807V85.0872Z" fill="#467C1D"/>
<path opacity="0.5" d="M57.7377 90.8272C56.7248 92.1778 56.7248 94.5414 56.556 96.0608C56.3871 97.2425 56.2183 98.9308 56.8936 99.9437C57.9066 100.113 59.426 99.0996 60.1013 98.762C61.283 98.0867 62.1272 97.0737 63.3089 96.3984C62.1272 97.0737 60.7766 98.0867 59.2571 98.4243C56.8936 98.9308 57.5689 97.2425 58.413 96.2296C59.0883 95.3855 60.6077 93.8661 60.2701 92.8531C60.1013 92.3467 58.5819 91.1649 58.0754 90.6584L57.7377 90.8272Z" fill="#467C1D"/>
<path opacity="0.5" d="M63.1401 81.7107C64.3218 84.4119 63.6465 86.6066 63.3089 89.139C64.3218 87.4508 67.3607 87.1131 69.5554 86.269C72.0877 85.256 72.9319 83.5678 74.7889 82.2172C72.5942 85.256 68.036 85.9313 64.4907 87.6196C64.8283 85.4249 64.6595 83.0613 62.9713 81.0354L63.1401 81.7107Z" fill="#467C1D"/>
<path opacity="0.5" d="M68.036 79.0096C68.036 80.6978 67.8672 82.2172 67.5295 83.7366C67.8672 82.5549 70.5684 82.0484 71.7501 81.3731C73.1007 80.6978 73.9448 79.8537 75.1266 78.8407C73.776 80.1913 70.5684 81.7107 68.5425 82.386C68.3737 81.3731 69.3866 79.3472 67.8672 78.8407L68.036 79.0096Z" fill="#467C1D"/>
<path d="M38.9983 66.6854C38.4918 57.2313 37.8165 47.4395 33.0894 38.6607C29.3753 31.7389 23.2977 26.6742 14.8565 23.1289C11.48 21.6095 7.93469 20.4277 4.72704 18.5706C3.37645 17.7265 2.19468 16.8824 0.84409 16.3759C-2.95341e-05 21.6095 -0.844149 27.1806 0.84409 32.4142C3.20762 39.8424 7.2594 47.1019 13.8435 52.673C15.8694 54.3613 35.9595 68.7113 38.323 66.0101L38.9983 66.6854Z" fill="#487F1E"/>
<path opacity="0.2" d="M1.51937 17.3889C3.03879 23.1289 9.45409 27.3495 14.35 32.0765C19.5835 37.3101 23.2977 42.8813 26.6741 48.9589C28.8688 52.8419 32.0765 56.2183 34.7777 59.9325C36.1283 61.7895 36.9724 63.9842 38.4918 65.8413C33.0894 63.309 28.5312 60.6078 23.8041 57.5689C18.9082 54.3613 14.35 51.4913 10.8047 47.2707C4.89585 40.0113 1.35055 32.583 0.844076 23.973C0.675252 21.9471 -0.506515 16.8824 1.51937 15.8694V17.3889Z" fill="#B3D45C"/>
<path opacity="0.2" d="M1.85706 17.22C3.37647 19.0771 4.38942 21.4406 6.24648 23.4665C7.93472 25.1548 9.62295 26.6742 11.3112 28.3624C15.363 31.9077 18.5706 35.453 21.2718 40.0113C23.6353 43.8942 24.9859 47.946 28.0248 51.6601C30.8948 55.2054 33.9336 58.5819 36.466 62.296C37.3101 63.6466 37.9854 64.9972 38.9983 66.3478C40.5177 63.6466 39.5048 58.0754 38.8295 55.2054C37.9854 51.4913 35.9595 47.946 34.6089 44.4007C34.6089 45.076 35.2842 47.7772 34.4401 48.2836C32.583 49.4654 30.2195 45.9201 29.5442 45.076C27.6871 42.7124 26.1677 40.3489 24.1418 37.9854C22.2847 35.9595 19.7524 34.4401 17.8953 32.583C16.0383 30.7259 15.1941 28.7001 13.1683 27.0118C11.48 25.6612 9.45413 24.6483 7.76589 23.2977C5.40236 21.4406 2.36353 19.5836 1.51941 17.0512C2.02588 17.0512 2.53235 17.0512 2.87 17.22H1.85706Z" fill="#467C1D"/>
<path opacity="0.2" d="M1.85706 19.5836C2.53235 24.3106 9.28531 28.5312 12.8306 31.9077C14.8565 33.9336 19.0771 38.8295 17.5577 41.6995C16.0383 44.7383 12.1553 42.3748 10.2982 40.8554C3.71412 35.1154 2.1947 27.1806 1.85706 19.7524V19.5836Z" fill="#B3D45C"/>
<path opacity="0.2" d="M1.85706 17.22C3.88294 18.5706 5.23353 20.7653 6.92177 22.4536C8.77883 24.3106 10.9735 25.9989 12.6618 27.8559C15.8694 31.0636 18.5706 34.7777 20.9342 38.4918C23.1289 41.8683 25.3236 45.4136 27.3495 48.7901C29.3753 51.9977 32.2454 54.5301 34.9465 57.5689C36.8036 59.7636 37.9854 62.4648 38.9983 64.8284C38.9983 61.4519 39.336 58.2442 38.323 55.0366C37.4789 51.9977 35.2842 48.7901 34.9465 45.7513C34.4401 46.7642 36.2971 50.1407 35.2842 50.9848C33.9336 52.1666 29.8818 47.2707 28.8689 46.2577C24.4795 42.206 20.9342 38.323 17.7265 33.7648C14.8565 30.0506 11.6488 27.0118 8.44119 23.973C6.24648 21.9471 2.53235 19.0771 1.51941 16.5447C1.85706 16.5447 2.02588 16.3759 2.36353 16.2071L1.85706 17.22Z" fill="#467C1D"/>
<path opacity="0.5" d="M30.3883 35.453C30.8947 35.6218 28.8689 40.3489 28.8689 41.5307C28.5312 43.8942 28.8689 46.5954 29.2065 48.9589C29.713 52.5042 32.2453 55.0366 34.44 57.9066C33.4271 52.8419 23.8041 52.5042 19.0771 50.816C14.0124 48.9589 9.45411 46.2577 6.75293 42.3748C9.45411 45.5824 14.1812 47.2707 18.5706 48.7901C21.9471 49.9719 26.3365 50.6472 29.2065 52.3354C28.0247 49.2966 26.843 46.0889 27.3494 42.8813C27.8559 39.8424 31.2324 37.1412 31.0636 34.1024L30.3883 35.453Z" fill="#467C1D"/>
<path opacity="0.5" d="M35.7906 47.2707C37.9853 50.1407 38.1542 54.8678 38.6606 58.2442C38.9983 60.6078 39.6736 64.3219 38.4918 66.5166C36.4659 67.0231 33.4271 65.166 31.9077 64.1531C29.5441 62.8025 27.5183 60.9454 25.3235 59.426C27.6871 60.9454 30.3883 62.8025 33.5959 63.309C38.323 64.1531 36.8036 60.6078 35.1153 58.5819C33.5959 56.8937 30.3883 54.0236 31.0636 51.4913C31.4012 50.3095 34.2712 47.6083 35.2842 46.5954L35.7906 47.2707Z" fill="#467C1D"/>
<path opacity="0.5" d="M24.3106 28.5312C21.9471 34.1024 23.6353 38.8295 24.8171 44.2318C22.7912 40.6865 16.5447 40.3489 12.1553 38.8295C7.0906 37.1412 5.23353 33.4271 1.51941 30.8948C6.07765 37.1412 15.1941 38.1542 22.4536 41.3618C21.6094 36.6348 21.6094 31.7389 24.8171 27.3495L24.3106 28.5312Z" fill="#467C1D"/>
<path opacity="0.5" d="M14.5188 23.4665C14.6877 27.0118 15.1941 30.0507 16.2071 33.4271C15.363 30.8948 10.1294 30.0507 7.59707 28.8689C4.89589 27.5183 3.03883 25.8301 0.844116 23.973C3.5453 26.6742 10.2983 29.5442 14.35 30.7259C14.6877 28.7001 12.3241 24.4795 15.1941 23.2977L14.5188 23.4665Z" fill="#467C1D"/>
<path d="M164.941 24.8171C164.941 20.4277 165.11 15.7006 167.136 11.48C168.824 8.10355 171.863 5.57119 175.914 3.71412C177.603 3.03883 179.291 2.36353 180.979 1.35059C181.654 1.01294 182.161 0.506471 182.836 0.168823C183.343 2.53236 184.018 5.23354 183.174 7.7659C182.161 11.3112 180.304 14.8565 177.096 17.5577C176.083 18.4018 166.292 25.6612 165.11 24.3106L164.941 24.8171Z" fill="#487F1E"/>
<path opacity="0.2" d="M182.499 0.675296C181.823 3.37648 178.784 5.57119 176.421 7.7659C173.889 10.2983 172.2 12.9994 170.681 16.0383C169.668 17.8953 168.149 19.5836 166.798 21.2718C166.123 22.2848 165.785 23.2977 165.11 24.1418C167.811 22.7912 170.006 21.4406 172.369 19.9212C174.733 18.4018 176.927 16.8824 178.784 14.6877C181.654 11.1424 183.174 7.59707 183.174 3.5453C183.174 2.70118 183.68 0.168824 182.667 -0.168823V0.675296H182.499Z" fill="#B3D45C"/>
<path opacity="0.2" d="M182.499 0.675294C181.823 1.68824 181.317 2.70118 180.473 3.71412C179.629 4.55824 178.784 5.23354 177.94 6.07766C176.083 7.93472 174.395 9.62296 173.213 11.8177C172.2 13.6747 171.525 15.7006 170.174 17.3889C168.824 19.0771 167.304 20.7653 166.292 22.6224C165.954 23.2977 165.616 23.973 165.11 24.4795C164.266 23.2977 164.603 20.5965 164.941 19.2459C165.279 17.5577 166.123 15.7006 166.798 14.0124C166.798 14.35 166.46 15.7006 166.967 15.8694C167.98 16.3759 168.993 14.6877 169.33 14.1812C170.174 12.9994 171.019 11.8177 171.863 10.8047C172.707 9.79178 173.889 9.11649 174.902 8.10354C175.746 7.25942 176.083 6.24648 177.096 5.40236C177.94 4.72707 178.953 4.22059 179.797 3.5453C180.979 2.70118 182.499 1.68824 182.836 0.50647C182.667 0.50647 182.33 0.50647 182.161 0.675294H182.499Z" fill="#467C1D"/>
<path opacity="0.2" d="M182.499 1.68823C182.161 3.88294 178.953 6.07765 177.265 7.76589C176.252 8.77883 174.395 11.1424 175.07 12.493C175.914 13.8436 177.94 12.6618 178.784 11.9865C181.992 9.11648 182.499 5.40236 182.499 1.68823Z" fill="#B3D45C"/>
<path opacity="0.2" d="M182.499 0.675294C181.486 1.35059 180.979 2.36353 180.135 3.20765C179.291 4.05177 178.109 4.89589 177.265 5.90883C175.746 7.59707 174.395 9.28531 173.382 11.1424C172.369 12.8306 171.356 14.5189 170.343 16.0383C169.33 17.5577 167.98 18.9083 166.798 20.2589C165.954 21.2718 165.279 22.6224 164.941 23.8042C164.772 22.2847 164.603 20.7653 165.11 19.0771C165.447 17.7265 166.46 16.0383 166.629 14.6877C166.967 15.1941 166.123 16.7136 166.629 17.22C167.304 17.7265 169.33 15.363 169.837 14.8565C172.032 12.8306 173.551 10.9735 175.239 8.77884C176.421 7.0906 177.94 5.57119 179.629 4.05177C180.642 3.03883 182.499 1.68824 182.836 0.50647C182.667 0.50647 182.499 0.50647 182.499 0.337646V0.675294Z" fill="#467C1D"/>
<path opacity="0.5" d="M168.486 9.79178C168.149 9.79178 169.33 11.9865 169.499 12.6618C169.668 13.6747 169.668 15.0253 169.499 16.2071C169.33 17.8953 168.149 19.0771 167.136 20.5965C167.473 18.233 172.369 17.7265 174.733 16.8824C177.265 15.8694 179.46 14.5188 180.81 12.6618C179.46 14.1812 177.096 15.0253 175.07 16.0383C173.382 16.7136 171.187 17.0512 169.837 17.8953C170.343 16.3759 170.85 14.8565 170.512 13.3371C170.174 11.9865 168.317 10.6359 168.486 9.28531V9.79178Z" fill="#467C1D"/>
<path opacity="0.5" d="M165.954 15.5318C164.941 16.8824 164.941 19.2459 164.772 20.7653C164.772 21.9471 164.434 23.6353 165.11 24.6483C166.123 24.8171 167.642 23.8042 168.317 23.4665C169.499 22.7912 170.343 21.7783 171.525 21.103C170.343 21.7783 168.993 22.7912 167.473 23.1289C165.11 23.6353 165.785 21.9471 166.629 20.9342C167.304 20.09 168.824 18.5706 168.486 17.5577C168.317 17.0512 166.798 15.8694 166.291 15.363L165.954 15.5318Z" fill="#467C1D"/>
<path opacity="0.5" d="M171.356 6.41532C172.538 9.1165 171.863 11.3112 171.525 13.8436C172.538 12.1553 175.577 11.8177 177.772 10.9736C180.304 9.96062 181.148 8.27238 183.005 6.92179C180.81 9.96062 176.252 10.6359 172.707 12.3242C173.044 10.1294 172.876 7.76591 171.187 5.74002L171.356 6.41532Z" fill="#467C1D"/>
<path opacity="0.5" d="M176.252 3.88293C176.252 5.57117 176.083 7.09059 175.746 8.61C176.083 7.42824 178.784 6.92176 179.966 6.24647C181.317 5.57117 182.161 4.72705 183.343 3.88293C181.992 5.23353 178.784 6.75294 176.759 7.42824C176.59 6.41529 177.603 4.38941 176.083 3.88293H176.252Z" fill="#467C1D"/>
<path opacity="0.5" d="M160.551 11.6488C159.201 14.0124 156.668 16.5447 155.655 19.0771C160.383 20.2589 156.331 21.4406 156.162 23.8042C155.993 25.6612 158.694 27.8559 159.37 29.713C161.227 34.1024 161.227 38.1542 159.032 42.5436C156.5 47.4395 153.967 50.4783 148.396 51.6601C143.331 52.673 138.604 51.1536 134.89 47.946C133.54 46.7642 132.02 44.9071 131.514 43.2189C131.007 41.8683 131.683 39.3359 130.163 38.6607C126.618 37.1412 125.267 44.7383 126.28 46.5954C127.8 49.803 132.189 50.9848 130.838 54.8677C129.488 58.413 127.8 59.426 132.358 61.7895C133.371 60.6078 135.228 58.0754 136.747 57.5689C138.098 57.0625 141.137 58.2442 142.825 58.413C144.851 58.5819 146.877 58.2442 148.227 59.7636C149.24 60.7766 149.915 63.8154 150.253 64.9972C152.11 64.6595 154.98 63.8154 156.837 62.8025C156.668 61.1142 155.149 59.7636 155.993 57.7378C156.668 56.2183 158.863 55.0366 160.214 54.0236C161.396 53.0107 162.915 50.6471 164.772 50.4783C166.291 50.3095 168.486 52.5042 169.837 53.686C171.356 51.9977 173.382 49.803 174.395 47.946C166.629 47.4395 169.668 37.9854 169.837 32.7518C172.369 32.7518 174.057 31.9077 176.083 30.7259C175.239 28.7 175.408 26.3365 174.733 24.1418C172.707 24.1418 170.85 26.5053 168.655 25.9989C167.136 25.6612 165.954 23.8042 164.772 22.6224C163.759 21.6094 161.733 19.9212 161.733 18.5706C161.733 16.3759 164.434 15.5318 163.928 12.9994C162.577 12.8306 161.227 12.8306 160.72 11.8177V11.6488H160.551Z" fill="#79B82F"/>
<g opacity="0.9">
<path opacity="0.01" d="M283.624 247.665C283.624 262.521 232.808 274.676 170.174 274.676C107.541 274.676 56.7248 262.521 56.7248 247.665C56.7248 232.808 107.541 220.653 170.174 220.653C232.808 220.653 283.624 232.808 283.624 247.665Z" fill="#FEFEFE"/>
<path opacity="0.0110497" d="M282.949 247.665C282.949 262.521 232.47 274.508 170.006 274.508C107.541 274.508 57.0624 262.521 57.0624 247.665C57.0624 232.808 107.541 220.822 170.006 220.822C232.47 220.822 282.949 232.808 282.949 247.665Z" fill="#FDFEFD"/>
<path opacity="0.0165746" d="M282.442 247.665C282.442 262.352 232.133 274.339 170.006 274.339C107.878 274.339 57.5689 262.352 57.5689 247.665C57.5689 232.977 107.878 220.99 170.006 220.99C232.133 220.99 282.442 232.977 282.442 247.665Z" fill="#FCFDFD"/>
<path opacity="0.0220995" d="M281.767 247.665C281.767 262.352 231.626 274.17 170.006 274.17C108.216 274.17 58.2442 262.352 58.2442 247.665C58.2442 232.977 108.216 221.159 170.006 221.159C231.795 221.159 281.767 233.146 281.767 247.665Z" fill="#FBFCFC"/>
<path opacity="0.0276243" d="M281.092 247.665C281.092 262.183 231.289 274.001 169.837 274.001C108.385 274.001 58.5818 262.183 58.5818 247.665C58.5818 233.146 108.385 221.328 169.837 221.328C231.289 221.328 281.092 233.146 281.092 247.665Z" fill="#FAFCFB"/>
<path opacity="0.0331492" d="M280.585 247.833C280.585 262.352 230.951 274.17 169.837 274.17C108.723 274.17 59.0883 262.352 59.0883 247.833C59.0883 233.315 108.554 221.666 169.837 221.666C230.951 221.497 280.585 233.315 280.585 247.833Z" fill="#F9FBFA"/>
<path opacity="0.038674" d="M279.91 247.833C279.91 262.183 230.613 274.001 169.837 274.001C109.06 274.001 59.7636 262.352 59.7636 247.833C59.7636 233.483 109.06 221.666 169.837 221.666C230.613 221.666 279.91 233.315 279.91 247.833Z" fill="#F8FAF9"/>
<path opacity="0.0441989" d="M279.403 247.833C279.403 262.183 230.276 273.832 169.837 273.832C109.229 273.832 60.2701 262.183 60.2701 247.833C60.2701 233.483 109.229 221.835 169.837 221.835C230.276 221.835 279.403 233.483 279.403 247.833Z" fill="#F7F9F9"/>
<path opacity="0.0497238" d="M278.728 247.833C278.728 262.183 229.938 273.664 169.668 273.664C109.398 273.664 60.6077 262.015 60.6077 247.833C60.6077 233.652 109.398 222.003 169.668 222.003C229.938 222.003 278.728 233.652 278.728 247.833Z" fill="#F6F9F8"/>
<path opacity="0.0552486" d="M278.053 247.833C278.053 262.015 229.432 273.495 169.668 273.495C109.735 273.495 61.283 262.015 61.283 247.833C61.283 233.652 109.904 222.172 169.668 222.172C229.6 222.172 278.053 233.652 278.053 247.833Z" fill="#F5F8F7"/>
<path opacity="0.0607735" d="M277.546 247.833C277.546 262.015 229.263 273.326 169.668 273.326C110.073 273.326 61.7895 261.846 61.7895 247.833C61.7895 233.652 110.073 222.341 169.668 222.341C229.263 222.341 277.546 233.821 277.546 247.833Z" fill="#F4F7F6"/>
<path opacity="0.0662983" d="M276.871 247.833C276.871 261.846 228.756 273.326 169.499 273.326C110.242 273.326 62.1271 262.015 62.1271 247.833C62.1271 233.821 110.242 222.51 169.499 222.51C228.756 222.51 276.871 233.821 276.871 247.833Z" fill="#F3F7F5"/>
<path opacity="0.0718232" d="M276.196 248.002C276.196 262.015 228.419 273.326 169.499 273.326C110.58 273.326 62.8024 262.015 62.8024 248.002C62.8024 233.99 110.58 222.679 169.499 222.679C228.419 222.679 276.196 233.99 276.196 248.002Z" fill="#F2F6F5"/>
<path opacity="0.0773481" d="M275.689 248.002C275.689 261.846 228.081 273.157 169.499 273.157C110.917 273.157 63.3089 261.846 63.3089 248.002C63.3089 234.159 110.917 222.848 169.499 222.848C228.081 222.848 275.689 234.159 275.689 248.002Z" fill="#F1F5F4"/>
<path opacity="0.0828729" d="M275.014 248.002C275.014 261.846 227.743 272.988 169.33 272.988C110.917 272.988 63.6465 261.846 63.6465 248.002C63.6465 234.159 110.917 223.016 169.33 223.016C227.743 223.016 275.014 234.159 275.014 248.002Z" fill="#F0F5F3"/>
<path opacity="0.0883978" d="M274.339 248.002C274.339 261.677 227.237 272.819 169.33 272.819C111.255 272.819 64.3218 261.677 64.3218 248.002C64.3218 234.328 111.424 223.185 169.33 223.185C227.406 223.185 274.339 234.328 274.339 248.002Z" fill="#EFF4F2"/>
<path opacity="0.0939227" d="M273.832 248.002C273.832 261.677 227.068 272.651 169.33 272.651C111.593 272.651 64.8284 261.508 64.8284 248.002C64.8284 234.328 111.593 223.354 169.33 223.354C227.068 223.354 273.832 234.328 273.832 248.002Z" fill="#EEF3F1"/>
<path opacity="0.0994475" d="M273.157 248.002C273.157 261.508 226.562 272.651 169.161 272.651C111.761 272.651 65.166 261.677 65.166 248.002C65.166 234.496 111.761 223.354 169.161 223.354C226.73 223.523 273.157 234.496 273.157 248.002Z" fill="#EDF3F1"/>
<path opacity="0.105" d="M272.651 248.002C272.651 261.508 226.393 272.482 169.33 272.482C112.268 272.482 66.0101 261.508 66.0101 248.002C66.0101 234.496 112.268 223.523 169.33 223.523C226.224 223.692 272.651 234.665 272.651 248.002Z" fill="#ECF2F0"/>
<path opacity="0.1105" d="M271.975 248.171C271.975 261.677 225.886 272.482 169.162 272.482C112.437 272.482 66.3478 261.677 66.3478 248.171C66.3478 234.834 112.437 223.86 169.162 223.86C225.886 223.86 271.975 234.665 271.975 248.171Z" fill="#EBF1EF"/>
<path opacity="0.116" d="M271.3 248.171C271.3 261.508 225.549 272.313 168.993 272.313C112.437 272.313 66.6854 261.508 66.6854 248.171C66.6854 234.834 112.437 224.029 168.993 224.029C225.549 224.029 271.3 234.834 271.3 248.171Z" fill="#EAF0EE"/>
<path opacity="0.1215" d="M270.793 248.171C270.793 261.508 225.211 272.144 169.161 272.144C112.943 272.144 67.5295 261.339 67.5295 248.171C67.5295 234.834 113.112 224.198 169.161 224.198C225.211 224.198 270.793 234.834 270.793 248.171Z" fill="#E9F0ED"/>
<path opacity="0.1271" d="M270.118 248.171C270.118 261.339 224.873 271.975 168.993 271.975C113.112 271.975 67.8672 261.339 67.8672 248.171C67.8672 235.003 113.112 224.367 168.993 224.367C224.873 224.367 270.118 235.003 270.118 248.171Z" fill="#E8EFED"/>
<path opacity="0.1326" d="M269.443 248.171C269.443 261.339 224.367 271.975 168.824 271.975C113.281 271.975 68.2048 261.339 68.2048 248.171C68.2048 235.003 113.281 224.367 168.824 224.367C224.536 224.536 269.443 235.172 269.443 248.171Z" fill="#E7EEEC"/>
<path opacity="0.1381" d="M268.936 248.171C268.936 261.171 224.198 271.806 168.993 271.806C113.787 271.806 68.8801 261.171 68.8801 248.171C68.8801 235.172 113.618 224.536 168.993 224.536C224.198 224.705 268.936 235.172 268.936 248.171Z" fill="#E6EEEB"/>
<path opacity="0.1436" d="M268.261 248.171C268.261 261.171 223.692 271.638 168.824 271.638C113.956 271.638 69.3866 261.171 69.3866 248.171C69.3866 235.172 113.956 224.705 168.824 224.705C223.692 224.873 268.261 235.34 268.261 248.171Z" fill="#E5EDEA"/>
<path opacity="0.1492" d="M267.755 248.34C267.755 261.171 223.523 271.638 168.824 271.638C114.125 271.638 69.8931 261.171 69.8931 248.34C69.8931 235.509 114.125 225.042 168.824 225.042C223.354 225.042 267.755 235.34 267.755 248.34Z" fill="#E4ECE9"/>
<path opacity="0.1547" d="M267.079 248.34C267.079 261.171 223.016 271.469 168.824 271.469C114.463 271.469 70.3995 261.171 70.3995 248.34C70.3995 235.509 114.463 225.211 168.824 225.211C223.016 225.211 267.079 235.509 267.079 248.34Z" fill="#E3ECE9"/>
<path opacity="0.1602" d="M266.404 248.34C266.404 261.002 222.679 271.3 168.655 271.3C114.631 271.3 70.906 261.002 70.906 248.34C70.906 235.678 114.631 225.38 168.655 225.38C222.679 225.38 266.404 235.678 266.404 248.34Z" fill="#E2EBE8"/>
<path opacity="0.1657" d="M265.898 248.34C265.898 261.002 222.341 271.3 168.655 271.3C114.969 271.3 71.4125 261.002 71.4125 248.34C71.4125 235.678 114.969 225.38 168.655 225.38C222.341 225.38 265.898 235.678 265.898 248.34Z" fill="#E1EAE7"/>
<path opacity="0.1713" d="M265.222 248.34C265.222 260.833 222.003 271.131 168.486 271.131C115.138 271.131 71.7501 261.002 71.7501 248.34C71.7501 235.847 114.969 225.549 168.486 225.549C222.003 225.549 265.222 235.847 265.222 248.34Z" fill="#E0EAE6"/>
<path opacity="0.1768" d="M264.547 248.34C264.547 260.833 221.497 270.962 168.486 270.962C115.476 270.962 72.4254 260.833 72.4254 248.34C72.4254 235.847 115.476 225.718 168.486 225.718C221.497 225.718 264.547 235.847 264.547 248.34Z" fill="#DFE9E5"/>
<path opacity="0.1823" d="M264.04 248.34C264.04 260.833 221.328 270.793 168.486 270.793C115.644 270.793 72.9319 260.664 72.9319 248.34C72.9319 236.016 115.644 225.886 168.486 225.886C221.159 225.886 264.04 236.016 264.04 248.34Z" fill="#DEE8E5"/>
<path opacity="0.1878" d="M263.365 248.509C263.365 260.833 220.822 270.793 168.317 270.793C115.813 270.793 73.2695 260.833 73.2695 248.509C73.2695 236.185 115.813 226.224 168.317 226.224C220.822 226.055 263.365 236.185 263.365 248.509Z" fill="#DDE8E4"/>
<path opacity="0.1934" d="M262.69 248.509C262.69 260.833 220.484 270.625 168.317 270.625C116.151 270.625 73.9448 260.664 73.9448 248.509C73.9448 236.185 116.151 226.393 168.317 226.393C220.484 226.224 262.69 236.185 262.69 248.509Z" fill="#DCE7E3"/>
<path opacity="0.1989" d="M262.183 248.509C262.183 260.664 220.146 270.625 168.317 270.625C116.488 270.625 74.4513 260.833 74.4513 248.509C74.4513 236.353 116.488 226.393 168.317 226.393C220.146 226.393 262.183 236.353 262.183 248.509Z" fill="#DBE6E2"/>
<path opacity="0.2044" d="M261.508 248.509C261.508 260.664 219.809 270.456 168.149 270.456C116.657 270.456 74.7889 260.664 74.7889 248.509C74.7889 236.353 116.488 226.562 168.149 226.562C219.809 226.562 261.508 236.353 261.508 248.509Z" fill="#DAE5E1"/>
<path opacity="0.2099" d="M261.002 248.509C261.002 260.495 219.471 270.287 168.317 270.287C117.164 270.287 75.6331 260.495 75.6331 248.509C75.6331 236.522 117.164 226.73 168.317 226.73C219.471 226.73 261.002 236.522 261.002 248.509Z" fill="#D9E5E1"/>
<path opacity="0.2155" d="M260.326 248.509C260.326 260.495 219.133 270.118 168.149 270.118C117.164 270.118 75.9707 260.495 75.9707 248.509C75.9707 236.522 117.164 226.899 168.149 226.899C218.965 226.899 260.326 236.691 260.326 248.509Z" fill="#D8E4E0"/>
<path opacity="0.221" d="M259.651 248.509C259.651 260.326 218.627 269.949 167.98 269.949C117.333 269.949 76.3083 260.326 76.3083 248.509C76.3083 236.691 117.333 227.068 167.98 227.068C218.627 227.068 259.651 236.691 259.651 248.509Z" fill="#D7E3DF"/>
<path opacity="0.2265" d="M259.145 248.678C259.145 260.495 218.458 270.118 168.149 270.118C117.839 270.118 77.1525 260.495 77.1525 248.678C77.1525 236.86 117.839 227.406 168.149 227.406C218.289 227.237 259.145 236.86 259.145 248.678Z" fill="#D6E3DE"/>
<path opacity="0.232" d="M258.469 248.678C258.469 260.326 217.952 269.949 167.98 269.949C118.008 269.949 77.4901 260.495 77.4901 248.678C77.4901 237.029 118.008 227.406 167.98 227.406C217.952 227.406 258.469 236.86 258.469 248.678Z" fill="#D5E2DD"/>
<path opacity="0.2376" d="M257.794 248.678C257.794 260.326 217.614 269.781 167.811 269.781C118.177 269.781 77.8278 260.326 77.8278 248.678C77.8278 237.029 118.008 227.575 167.811 227.575C217.614 227.575 257.794 237.029 257.794 248.678Z" fill="#D4E1DD"/>
<path opacity="0.2431" d="M257.288 248.678C257.288 260.326 217.276 269.612 167.98 269.612C118.683 269.612 78.6719 260.158 78.6719 248.678C78.6719 237.198 118.683 227.743 167.98 227.743C217.276 227.743 257.288 237.198 257.288 248.678Z" fill="#D3E1DC"/>
<path opacity="0.2486" d="M256.612 248.678C256.612 260.158 216.77 269.443 167.811 269.443C118.683 269.443 79.0095 260.158 79.0095 248.678C79.0095 237.198 118.683 227.912 167.811 227.912C216.939 227.912 256.612 237.198 256.612 248.678Z" fill="#D2E0DB"/>
<path opacity="0.2541" d="M255.937 248.678C255.937 260.158 216.432 269.274 167.642 269.274C118.852 269.274 79.3472 259.989 79.3472 248.678C79.3472 237.198 118.852 228.081 167.642 228.081C216.432 228.081 255.937 237.366 255.937 248.678Z" fill="#D1DFDA"/>
<path opacity="0.2597" d="M255.43 248.678C255.43 259.989 216.095 269.274 167.811 269.274C119.358 269.274 80.1913 260.158 80.1913 248.678C80.1913 237.366 119.358 228.25 167.811 228.25C216.095 228.25 255.43 237.366 255.43 248.678Z" fill="#D0DFD9"/>
<path opacity="0.2652" d="M254.755 248.846C254.755 260.158 215.757 269.274 167.642 269.274C119.527 269.274 80.5289 260.158 80.5289 248.846C80.5289 237.535 119.527 228.419 167.642 228.419C215.757 228.419 254.755 237.535 254.755 248.846Z" fill="#CFDED9"/>
<path opacity="0.2707" d="M254.249 248.846C254.249 259.989 215.419 269.105 167.642 269.105C119.865 269.105 81.0354 259.989 81.0354 248.846C81.0354 237.704 119.696 228.588 167.642 228.588C215.419 228.588 254.249 237.704 254.249 248.846Z" fill="#CEDDD8"/>
<path opacity="0.2762" d="M253.573 248.846C253.573 259.989 215.082 268.936 167.642 268.936C120.203 268.936 81.7108 259.989 81.7108 248.846C81.7108 237.704 120.203 228.756 167.642 228.756C215.082 228.756 253.573 237.704 253.573 248.846Z" fill="#CDDCD7"/>
<path opacity="0.2818" d="M252.898 248.846C252.898 259.82 214.575 268.768 167.473 268.768C120.203 268.768 82.0483 259.82 82.0483 248.846C82.0483 237.873 120.371 228.925 167.473 228.925C214.744 228.925 252.898 237.873 252.898 248.846Z" fill="#CCDCD6"/>
<path opacity="0.2873" d="M252.392 248.846C252.392 259.82 214.406 268.599 167.473 268.599C120.54 268.599 82.5549 259.651 82.5549 248.846C82.5549 237.873 120.54 229.094 167.473 229.094C214.406 229.094 252.392 237.873 252.392 248.846Z" fill="#CBDBD5"/>
<path opacity="0.2928" d="M251.716 248.846C251.716 259.651 213.9 268.599 167.473 268.599C120.878 268.599 83.2302 259.82 83.2302 248.846C83.2302 238.042 121.047 229.263 167.473 229.263C213.9 229.263 251.716 238.042 251.716 248.846Z" fill="#CADAD5"/>
<path opacity="0.2983" d="M251.041 248.846C251.041 259.651 213.562 268.43 167.304 268.43C121.047 268.43 83.5678 259.651 83.5678 248.846C83.5678 238.042 121.047 229.263 167.304 229.263C213.562 229.432 251.041 238.21 251.041 248.846Z" fill="#C9DAD4"/>
<path opacity="0.3039" d="M250.535 249.015C250.535 259.651 213.225 268.43 167.304 268.43C121.384 268.43 84.0743 259.82 84.0743 249.015C84.0743 238.379 121.384 229.6 167.304 229.6C213.225 229.6 250.535 238.21 250.535 249.015Z" fill="#C8D9D3"/>
<path opacity="0.3094" d="M249.859 249.015C249.859 259.651 212.887 268.261 167.304 268.261C121.722 268.261 84.7496 259.651 84.7496 249.015C84.7496 238.379 121.722 229.769 167.304 229.769C212.887 229.769 249.859 238.379 249.859 249.015Z" fill="#C7D8D2"/>
<path opacity="0.3149" d="M249.184 249.015C249.184 259.651 212.38 268.092 167.136 268.092C121.722 268.092 85.0872 259.482 85.0872 249.015C85.0872 238.548 121.891 229.938 167.136 229.938C212.549 229.938 249.184 238.379 249.184 249.015Z" fill="#C6D8D1"/>
<path opacity="0.3204" d="M248.678 249.015C248.678 259.482 212.212 267.923 167.136 267.923C122.06 267.923 85.5937 259.482 85.5937 249.015C85.5937 238.548 122.06 230.107 167.136 230.107C212.212 230.107 248.678 238.548 248.678 249.015Z" fill="#C5D7D1"/>
<path opacity="0.326" d="M248.002 249.015C248.002 259.482 211.705 267.923 167.136 267.923C122.397 267.923 86.1002 259.482 86.1002 249.015C86.1002 238.548 122.397 230.276 167.136 230.276C211.705 230.276 248.002 238.717 248.002 249.015Z" fill="#C4D6D0"/>
<path opacity="0.3315" d="M247.496 249.015C247.496 259.313 211.536 267.755 167.136 267.755C122.735 267.755 86.7755 259.313 86.7755 249.015C86.7755 238.717 122.735 230.276 167.136 230.276C211.367 230.445 247.496 238.717 247.496 249.015Z" fill="#C3D6CF"/>
<path opacity="0.337" d="M246.82 249.015C246.82 259.313 211.03 267.586 166.967 267.586C122.904 267.586 87.1131 259.313 87.1131 249.015C87.1131 238.717 122.904 230.445 166.967 230.445C211.03 230.613 246.82 238.886 246.82 249.015Z" fill="#C2D5CE"/>
<path opacity="0.3425" d="M246.145 249.184C246.145 259.313 210.692 267.586 166.967 267.586C123.241 267.586 87.6196 259.313 87.6196 249.184C87.6196 239.055 123.073 230.782 166.967 230.782C210.692 230.782 246.145 238.886 246.145 249.184Z" fill="#C1D4CD"/>
<path opacity="0.3481" d="M245.639 249.184C245.639 259.313 210.355 267.417 166.967 267.417C123.41 267.417 88.2949 259.313 88.2949 249.184C88.2949 239.055 123.579 230.951 166.967 230.951C210.355 230.951 245.639 239.055 245.639 249.184Z" fill="#C0D3CD"/>
<path opacity="0.3536" d="M244.963 249.184C244.963 259.145 210.017 267.248 166.798 267.248C123.579 267.248 88.6325 259.145 88.6325 249.184C88.6325 239.223 123.579 231.12 166.798 231.12C210.017 231.12 244.963 239.223 244.963 249.184Z" fill="#BFD3CC"/>
<path opacity="0.3591" d="M244.288 249.184C244.288 259.145 209.51 267.248 166.629 267.248C123.748 267.248 88.9702 259.145 88.9702 249.184C88.9702 239.223 123.748 231.289 166.629 231.289C209.679 231.12 244.288 239.223 244.288 249.184Z" fill="#BED2CB"/>
<path opacity="0.3646" d="M243.782 249.184C243.782 258.976 209.342 267.079 166.798 267.079C124.254 267.079 89.8142 259.145 89.8142 249.184C89.8142 239.392 124.254 231.289 166.798 231.289C209.173 231.289 243.782 239.392 243.782 249.184Z" fill="#BDD1CA"/>
<path opacity="0.3702" d="M243.106 249.184C243.106 258.976 208.835 266.911 166.629 266.911C124.423 266.911 90.152 258.976 90.152 249.184C90.152 239.392 124.423 231.458 166.629 231.458C208.835 231.458 243.106 239.392 243.106 249.184Z" fill="#BCD1C9"/>
<path opacity="0.3757" d="M242.431 249.184C242.431 258.976 208.497 266.742 166.46 266.742C124.592 266.742 90.4895 258.807 90.4895 249.184C90.4895 239.561 124.423 231.626 166.46 231.626C208.497 231.626 242.431 239.561 242.431 249.184Z" fill="#BBD0C9"/>
<path opacity="0.3812" d="M241.925 249.353C241.925 258.976 208.16 266.742 166.629 266.742C124.93 266.742 91.1649 258.976 91.1649 249.353C91.1649 239.73 124.93 231.964 166.46 231.964C208.16 231.795 241.925 239.73 241.925 249.353Z" fill="#BACFC8"/>
<path opacity="0.3867" d="M241.249 249.353C241.249 258.976 207.822 266.573 166.46 266.573C125.099 266.573 91.6714 258.807 91.6714 249.353C91.6714 239.899 125.099 232.133 166.46 232.133C207.822 231.964 241.249 239.73 241.249 249.353Z" fill="#B9CFC7"/>
<path opacity="0.3923" d="M240.743 249.353C240.743 258.807 207.485 266.573 166.46 266.573C125.436 266.573 92.1779 258.976 92.1779 249.353C92.1779 239.899 125.436 232.302 166.46 232.302C207.485 232.133 240.743 239.899 240.743 249.353Z" fill="#B8CEC6"/>
<path opacity="0.3978" d="M240.068 249.353C240.068 258.807 207.147 266.404 166.46 266.404C125.774 266.404 92.8531 258.807 92.8531 249.353C92.8531 239.899 125.774 232.302 166.46 232.302C207.147 232.302 240.068 239.899 240.068 249.353Z" fill="#B7CDC5"/>
<path opacity="0.4033" d="M239.392 249.353C239.392 258.638 206.64 266.235 166.292 266.235C125.943 266.235 93.1908 258.638 93.1908 249.353C93.1908 240.068 125.943 232.47 166.292 232.47C206.64 232.47 239.392 240.068 239.392 249.353Z" fill="#B6CDC5"/>
<path opacity="0.4088" d="M238.886 249.353C238.886 258.638 206.472 266.066 166.292 266.066C126.28 266.066 93.6973 258.638 93.6973 249.353C93.6973 240.068 126.111 232.639 166.292 232.639C206.303 232.639 238.886 240.236 238.886 249.353Z" fill="#B5CCC4"/>
<path opacity="0.4144" d="M238.21 249.353C238.21 258.469 205.965 265.898 166.292 265.898C126.449 265.898 94.3726 258.469 94.3726 249.353C94.3726 240.236 126.618 232.808 166.292 232.808C205.965 232.808 238.21 240.236 238.21 249.353Z" fill="#B4CBC3"/>
<path opacity="0.4199" d="M237.535 249.522C237.535 258.638 205.627 265.898 166.123 265.898C126.618 265.898 94.7102 258.469 94.7102 249.522C94.7102 240.405 126.618 233.146 166.123 233.146C205.627 232.977 237.535 240.405 237.535 249.522Z" fill="#B3CBC2"/>
<path opacity="0.4254" d="M237.029 249.522C237.029 258.469 205.29 265.898 166.123 265.898C126.956 265.898 95.2167 258.638 95.2167 249.522C95.2167 240.574 126.956 233.146 166.123 233.146C205.29 233.146 237.029 240.405 237.029 249.522Z" fill="#B2CAC1"/>
<path opacity="0.4309" d="M236.353 249.522C236.353 258.469 204.952 265.729 166.123 265.729C127.293 265.729 95.892 258.469 95.892 249.522C95.892 240.574 127.293 233.315 166.123 233.315C204.952 233.315 236.353 240.574 236.353 249.522Z" fill="#B1C9C1"/>
<path opacity="0.4365" d="M235.678 249.522C235.678 258.301 204.446 265.56 165.954 265.56C127.462 265.56 96.2296 258.469 96.2296 249.522C96.2296 240.743 127.462 233.483 165.954 233.483C204.615 233.483 235.678 240.743 235.678 249.522Z" fill="#B0C8C0"/>
<path opacity="0.442" d="M235.172 249.522C235.172 258.301 204.277 265.391 165.954 265.391C127.8 265.391 96.7361 258.301 96.7361 249.522C96.7361 240.743 127.631 233.652 165.954 233.652C204.108 233.652 235.172 240.743 235.172 249.522Z" fill="#AFC8BF"/>
<path opacity="0.4475" d="M234.496 249.522C234.496 258.301 203.77 265.222 165.954 265.222C127.969 265.222 97.4114 258.132 97.4114 249.522C97.4114 240.912 128.137 233.821 165.954 233.821C203.77 233.821 234.496 240.912 234.496 249.522Z" fill="#AEC7BE"/>
<path opacity="0.453" d="M233.99 249.522C233.99 258.132 203.602 265.053 165.954 265.053C128.306 265.053 97.9178 258.132 97.9178 249.522C97.9178 240.912 128.306 233.99 165.954 233.99C203.433 233.99 233.99 240.912 233.99 249.522Z" fill="#ADC6BD"/>
<path opacity="0.4586" d="M233.315 249.69C233.315 258.301 203.095 265.222 165.785 265.222C128.475 265.222 98.2555 258.301 98.2555 249.69C98.2555 241.08 128.475 234.159 165.785 234.159C203.095 234.159 233.315 241.08 233.315 249.69Z" fill="#ACC6BD"/>
<path opacity="0.4641" d="M232.639 249.69C232.639 258.132 202.757 265.053 165.785 265.053C128.813 265.053 98.9308 258.132 98.9308 249.69C98.9308 241.249 128.813 234.328 165.785 234.328C202.757 234.328 232.639 241.249 232.639 249.69Z" fill="#ABC5BC"/>
<path opacity="0.4696" d="M232.133 249.69C232.133 258.132 202.42 264.885 165.785 264.885C129.15 264.885 99.4373 258.132 99.4373 249.69C99.4373 241.249 129.15 234.496 165.785 234.496C202.42 234.496 232.133 241.249 232.133 249.69Z" fill="#AAC4BB"/>
<path opacity="0.4751" d="M231.458 249.69C231.458 257.963 202.082 264.716 165.616 264.716C129.319 264.716 99.7749 257.963 99.7749 249.69C99.7749 241.418 129.15 234.665 165.616 234.665C202.082 234.665 231.458 241.418 231.458 249.69Z" fill="#A9C4BA"/>
<path opacity="0.4807" d="M230.782 249.69C230.782 257.963 201.576 264.547 165.616 264.547C129.657 264.547 100.45 257.794 100.45 249.69C100.45 241.418 129.657 234.834 165.616 234.834C201.576 234.834 230.782 241.418 230.782 249.69Z" fill="#A8C3B9"/>
<path opacity="0.4862" d="M230.276 249.69C230.276 257.794 201.238 264.378 165.616 264.378C129.826 264.378 100.957 257.794 100.957 249.69C100.957 241.587 129.826 235.003 165.616 235.003C201.238 235.003 230.276 241.587 230.276 249.69Z" fill="#A7C2B9"/>
<path opacity="0.4917" d="M229.6 249.69C229.6 257.794 200.9 264.378 165.447 264.378C129.994 264.378 101.294 257.794 101.294 249.69C101.294 241.587 129.994 235.003 165.447 235.003C200.9 235.172 229.6 241.756 229.6 249.69Z" fill="#A6C2B8"/>
<path opacity="0.4972" d="M228.925 249.69C228.925 257.625 200.394 264.209 165.447 264.209C130.332 264.209 101.97 257.794 101.97 249.69C101.97 241.756 130.332 235.172 165.447 235.172C200.563 235.34 228.925 241.756 228.925 249.69Z" fill="#A5C1B7"/>
<path opacity="0.5028" d="M228.419 249.859C228.419 257.794 200.225 264.209 165.447 264.209C130.67 264.209 102.476 257.794 102.476 249.859C102.476 241.925 130.67 235.509 165.447 235.509C200.225 235.509 228.419 241.925 228.419 249.859Z" fill="#A4C0B6"/>
<path opacity="0.5083" d="M227.743 249.859C227.743 257.794 199.719 264.041 165.279 264.041C130.838 264.041 102.814 257.625 102.814 249.859C102.814 242.093 130.838 235.678 165.279 235.678C199.887 235.678 227.743 241.925 227.743 249.859Z" fill="#A3BFB5"/>
<path opacity="0.5138" d="M227.237 249.859C227.237 257.625 199.55 263.872 165.447 263.872C131.345 263.872 103.489 257.625 103.489 249.859C103.489 242.093 131.176 235.847 165.447 235.847C199.381 235.847 227.237 242.093 227.237 249.859Z" fill="#A2BFB4"/>
<path opacity="0.5193" d="M226.562 249.859C226.562 257.625 199.043 263.872 165.279 263.872C131.345 263.872 103.995 257.625 103.995 249.859C103.995 242.262 131.514 236.016 165.279 236.016C199.043 236.016 226.562 242.262 226.562 249.859Z" fill="#A1BEB4"/>
<path opacity="0.5249" d="M225.886 249.859C225.886 257.456 198.706 263.703 165.11 263.703C131.514 263.703 104.333 257.456 104.333 249.859C104.333 242.262 131.514 236.016 165.11 236.016C198.706 236.185 225.886 242.262 225.886 249.859Z" fill="#A0BDB3"/>
<path opacity="0.5304" d="M225.38 249.859C225.38 257.456 198.368 263.534 165.279 263.534C132.02 263.534 105.008 257.456 105.008 249.859C105.008 242.262 132.02 236.185 165.279 236.185C198.368 236.353 225.38 242.431 225.38 249.859Z" fill="#9FBDB2"/>
<path opacity="0.5359" d="M224.705 249.859C224.705 257.288 198.03 263.365 165.11 263.365C132.189 263.365 105.515 257.288 105.515 249.859C105.515 242.431 132.189 236.353 165.11 236.353C198.03 236.522 224.705 242.431 224.705 249.859Z" fill="#9EBCB1"/>
<path opacity="0.5414" d="M224.029 250.028C224.029 257.456 197.524 263.365 164.941 263.365C132.358 263.365 105.853 257.456 105.853 250.028C105.853 242.6 132.358 236.691 164.941 236.691C197.693 236.691 224.029 242.6 224.029 250.028Z" fill="#9DBBB0"/>
<path opacity="0.547" d="M223.523 250.028C223.523 257.288 197.355 263.196 165.11 263.196C132.864 263.196 106.528 257.288 106.528 250.028C106.528 242.769 132.696 236.86 165.11 236.86C197.355 236.86 223.523 242.769 223.523 250.028Z" fill="#9CBBB0"/>
<path opacity="0.5525" d="M222.847 250.028C222.847 257.288 196.849 263.196 164.941 263.196C132.864 263.196 107.034 257.288 107.034 250.028C107.034 242.769 133.033 237.029 164.941 237.029C196.849 236.86 222.847 242.769 222.847 250.028Z" fill="#9BBAAF"/>
<path opacity="0.558" d="M222.172 250.028C222.172 257.119 196.511 263.028 164.772 263.028C133.033 263.028 107.372 257.288 107.372 250.028C107.372 242.938 133.033 237.029 164.772 237.029C196.511 237.029 222.172 242.938 222.172 250.028Z" fill="#9AB9AE"/>
<path opacity="0.5635" d="M221.666 250.028C221.666 257.119 196.173 262.859 164.772 262.859C133.371 262.859 107.878 257.119 107.878 250.028C107.878 242.938 133.371 237.198 164.772 237.198C196.173 237.198 221.666 242.938 221.666 250.028Z" fill="#99B9AD"/>
<path opacity="0.5691" d="M220.99 250.028C220.99 256.95 195.836 262.69 164.772 262.69C133.708 262.69 108.554 256.95 108.554 250.028C108.554 243.106 133.708 237.366 164.772 237.366C195.836 237.366 220.99 243.106 220.99 250.028Z" fill="#98B8AC"/>
<path opacity="0.5746" d="M220.484 250.028C220.484 256.95 195.498 262.521 164.772 262.521C134.046 262.521 109.06 256.95 109.06 250.028C109.06 243.106 134.046 237.535 164.772 237.535C195.498 237.535 220.484 243.275 220.484 250.028Z" fill="#97B7AC"/>
<path opacity="0.5801" d="M219.809 250.197C219.809 257.119 195.16 262.521 164.603 262.521C134.215 262.521 109.398 256.95 109.398 250.197C109.398 243.444 134.046 237.873 164.603 237.873C195.16 237.704 219.809 243.275 219.809 250.197Z" fill="#96B6AB"/>
<path opacity="0.5856" d="M219.133 250.197C219.133 256.95 194.654 262.521 164.603 262.521C134.384 262.521 110.073 257.119 110.073 250.197C110.073 243.444 134.553 238.042 164.603 238.042C194.823 237.873 219.133 243.444 219.133 250.197Z" fill="#95B6AA"/>
<path opacity="0.5912" d="M218.627 250.197C218.627 256.95 194.485 262.352 164.603 262.352C134.721 262.352 110.58 256.95 110.58 250.197C110.58 243.444 134.721 238.042 164.603 238.042C194.316 238.042 218.627 243.444 218.627 250.197Z" fill="#94B5A9"/>
<path opacity="0.5967" d="M217.952 250.197C217.952 256.781 193.979 262.183 164.434 262.183C134.89 262.183 110.917 256.781 110.917 250.197C110.917 243.613 134.89 238.21 164.434 238.21C193.979 238.21 217.952 243.613 217.952 250.197Z" fill="#93B4A8"/>
<path opacity="0.6022" d="M217.276 250.197C217.276 256.781 193.641 262.015 164.434 262.015C135.228 262.015 111.593 256.781 111.593 250.197C111.593 243.613 135.228 238.379 164.434 238.379C193.641 238.379 217.276 243.782 217.276 250.197Z" fill="#92B4A8"/>
<path opacity="0.6077" d="M216.77 250.197C216.77 256.612 193.303 261.846 164.434 261.846C135.566 261.846 112.099 256.612 112.099 250.197C112.099 243.782 135.566 238.548 164.434 238.548C193.303 238.548 216.77 243.782 216.77 250.197Z" fill="#91B3A7"/>
<path opacity="0.6133" d="M216.094 250.197C216.094 256.612 192.966 261.677 164.266 261.677C135.734 261.677 112.437 256.443 112.437 250.197C112.437 243.782 135.566 238.717 164.266 238.717C192.966 238.717 216.094 243.95 216.094 250.197Z" fill="#90B2A6"/>
<path opacity="0.6188" d="M215.419 250.366C215.419 256.612 192.459 261.846 164.266 261.846C135.903 261.846 113.112 256.781 113.112 250.366C113.112 244.119 136.072 239.055 164.266 239.055C192.628 238.886 215.419 243.951 215.419 250.366Z" fill="#8FB2A5"/>
<path opacity="0.6243" d="M214.913 250.366C214.913 256.612 192.29 261.677 164.266 261.677C136.241 261.677 113.618 256.612 113.618 250.366C113.618 244.119 136.241 239.055 164.266 239.055C192.29 239.055 214.913 244.119 214.913 250.366Z" fill="#8EB1A4"/>
<path opacity="0.6298" d="M214.237 250.366C214.237 256.443 191.784 261.508 164.097 261.508C136.41 261.508 113.956 256.612 113.956 250.366C113.956 244.288 136.41 239.223 164.097 239.223C191.784 239.223 214.237 244.288 214.237 250.366Z" fill="#8DB0A4"/>
<path opacity="0.6354" d="M213.731 250.366C213.731 256.443 191.615 261.339 164.266 261.339C136.916 261.339 114.8 256.443 114.8 250.366C114.8 244.288 136.916 239.392 164.266 239.392C191.446 239.392 213.731 244.288 213.731 250.366Z" fill="#8CB0A3"/>
<path opacity="0.6409" d="M213.056 250.366C213.056 256.443 191.109 261.171 164.097 261.171C137.085 261.171 115.138 256.275 115.138 250.366C115.138 244.457 137.085 239.561 164.097 239.561C191.109 239.561 213.056 244.457 213.056 250.366Z" fill="#8BAFA2"/>
<path opacity="0.6464" d="M212.38 250.366C212.38 256.275 190.771 261.002 163.928 261.002C137.254 261.002 115.475 256.275 115.475 250.366C115.475 244.457 137.085 239.73 163.928 239.73C190.771 239.73 212.38 244.457 212.38 250.366Z" fill="#8AAEA1"/>
<path opacity="0.6519" d="M211.874 250.366C211.874 256.275 190.433 261.002 164.097 261.002C137.591 261.002 116.32 256.275 116.32 250.366C116.32 244.626 137.76 239.899 164.097 239.899C190.433 239.899 211.874 244.626 211.874 250.366Z" fill="#89AEA0"/>
<path opacity="0.6575" d="M211.199 250.535C211.199 256.275 190.096 261.002 163.928 261.002C137.76 261.002 116.657 256.275 116.657 250.535C116.657 244.795 137.76 240.068 163.928 240.068C190.096 240.068 211.199 244.795 211.199 250.535Z" fill="#88ADA0"/>
<path opacity="0.663" d="M210.523 250.535C210.523 256.275 189.589 260.833 163.759 260.833C137.929 260.833 116.995 256.275 116.995 250.535C116.995 244.795 137.929 240.236 163.759 240.236C189.589 240.236 210.523 244.795 210.523 250.535Z" fill="#87AC9F"/>
<path opacity="0.6685" d="M210.017 250.535C210.017 256.106 189.42 260.664 163.928 260.664C138.435 260.664 117.839 256.106 117.839 250.535C117.839 244.963 138.435 240.405 163.928 240.405C189.251 240.405 210.017 244.963 210.017 250.535Z" fill="#86AB9E"/>
<path opacity="0.674" d="M209.342 250.535C209.342 256.106 188.914 260.495 163.759 260.495C138.604 260.495 118.177 256.106 118.177 250.535C118.177 244.963 138.604 240.574 163.759 240.574C188.914 240.574 209.342 244.963 209.342 250.535Z" fill="#85AB9D"/>
<path opacity="0.6796" d="M208.666 250.535C208.666 255.937 188.576 260.326 163.59 260.326C138.773 260.326 118.514 255.937 118.514 250.535C118.514 245.132 138.604 240.743 163.59 240.743C188.576 240.743 208.666 245.132 208.666 250.535Z" fill="#84AA9C"/>
<path opacity="0.6851" d="M208.16 250.535C208.16 255.937 188.239 260.326 163.759 260.326C139.111 260.326 119.358 255.937 119.358 250.535C119.358 245.132 139.28 240.912 163.759 240.912C188.239 240.912 208.16 245.301 208.16 250.535Z" fill="#83A99C"/>
<path opacity="0.6906" d="M207.484 250.535C207.484 255.768 187.901 260.158 163.59 260.158C139.28 260.158 119.696 255.937 119.696 250.535C119.696 245.301 139.28 240.912 163.59 240.912C187.901 241.08 207.484 245.301 207.484 250.535Z" fill="#82A99B"/>
<path opacity="0.6961" d="M206.978 250.703C206.978 255.937 187.563 260.158 163.59 260.158C139.617 260.158 120.203 255.937 120.203 250.703C120.203 245.47 139.617 241.249 163.59 241.249C187.563 241.249 206.978 245.47 206.978 250.703Z" fill="#81A89A"/>
<path opacity="0.7017" d="M206.303 250.703C206.303 255.937 187.226 259.989 163.59 259.989C139.955 259.989 120.709 255.768 120.709 250.703C120.709 245.639 139.786 241.418 163.59 241.418C187.057 241.418 206.303 245.47 206.303 250.703Z" fill="#80A799"/>
<path opacity="0.7072" d="M205.628 250.703C205.628 255.768 186.719 259.82 163.422 259.82C140.124 259.82 121.216 255.768 121.216 250.703C121.216 245.639 140.124 241.587 163.422 241.587C186.719 241.587 205.628 245.639 205.628 250.703Z" fill="#7FA798"/>
<path opacity="0.7127" d="M205.121 250.703C205.121 255.768 186.381 259.651 163.421 259.651C140.461 259.651 121.722 255.599 121.722 250.703C121.722 245.808 140.293 241.756 163.421 241.756C186.381 241.756 205.121 245.808 205.121 250.703Z" fill="#7EA698"/>
<path opacity="0.7182" d="M204.446 250.703C204.446 255.599 186.044 259.651 163.422 259.651C140.63 259.651 122.229 255.599 122.229 250.703C122.229 245.808 140.63 241.925 163.422 241.925C186.044 241.925 204.446 245.808 204.446 250.703Z" fill="#7DA597"/>
<path opacity="0.7238" d="M203.77 250.703C203.77 255.599 185.537 259.482 163.253 259.482C140.799 259.482 122.735 255.599 122.735 250.703C122.735 245.976 140.799 241.925 163.253 241.925C185.706 242.093 203.77 245.976 203.77 250.703Z" fill="#7CA596"/>
<path opacity="0.7293" d="M203.264 250.703C203.264 255.431 185.369 259.313 163.253 259.313C141.137 259.313 123.241 255.431 123.241 250.703C123.241 245.976 141.137 242.093 163.253 242.093C185.369 242.262 203.264 245.976 203.264 250.703Z" fill="#7BA495"/>
<path opacity="0.7348" d="M202.589 250.872C202.589 255.599 184.862 259.313 163.253 259.313C141.474 259.313 123.748 255.599 123.748 250.872C123.748 246.145 141.474 242.431 163.253 242.431C185.031 242.431 202.589 246.145 202.589 250.872Z" fill="#7AA394"/>
<path opacity="0.7403" d="M201.913 250.872C201.913 255.431 184.525 259.145 163.084 259.145C141.643 259.145 124.254 255.431 124.254 250.872C124.254 246.314 141.643 242.6 163.084 242.6C184.525 242.6 201.913 246.314 201.913 250.872Z" fill="#79A294"/>
<path opacity="0.7459" d="M201.407 250.872C201.407 255.431 184.187 258.976 163.084 258.976C141.981 258.976 124.761 255.262 124.761 250.872C124.761 246.314 141.981 242.769 163.084 242.769C184.187 242.769 201.407 246.314 201.407 250.872Z" fill="#78A293"/>
<path opacity="0.7514" d="M200.732 250.872C200.732 255.262 183.849 258.976 162.915 258.976C141.981 258.976 125.099 255.431 125.099 250.872C125.099 246.483 141.981 242.769 162.915 242.769C183.849 242.769 200.732 246.483 200.732 250.872Z" fill="#77A192"/>
<path opacity="0.7569" d="M200.225 250.872C200.225 255.262 183.512 258.807 163.084 258.807C142.487 258.807 125.943 255.262 125.943 250.872C125.943 246.483 142.656 242.938 163.084 242.938C183.512 242.938 200.225 246.483 200.225 250.872Z" fill="#76A091"/>
<path opacity="0.7624" d="M199.55 250.872C199.55 255.093 183.174 258.638 162.915 258.638C142.656 258.638 126.28 255.093 126.28 250.872C126.28 246.652 142.656 243.106 162.915 243.106C183.174 243.106 199.55 246.652 199.55 250.872Z" fill="#75A090"/>
<path opacity="0.768" d="M198.875 250.872C198.875 255.093 182.667 258.469 162.746 258.469C142.825 258.469 126.618 255.093 126.618 250.872C126.618 246.652 142.825 243.275 162.746 243.275C182.836 243.275 198.875 246.821 198.875 250.872Z" fill="#749F90"/>
<path opacity="0.7735" d="M198.368 251.041C198.368 255.262 182.499 258.469 162.915 258.469C143.331 258.469 127.462 255.093 127.462 251.041C127.462 246.989 143.331 243.613 162.915 243.613C182.499 243.444 198.368 246.821 198.368 251.041Z" fill="#739E8F"/>
<path opacity="0.779" d="M197.693 251.041C197.693 255.093 181.992 258.469 162.746 258.469C143.5 258.469 127.8 255.262 127.8 251.041C127.8 246.989 143.5 243.782 162.746 243.782C181.992 243.613 197.693 246.989 197.693 251.041Z" fill="#729E8E"/>
<path opacity="0.7845" d="M197.017 251.041C197.017 255.093 181.654 258.301 162.577 258.301C143.669 258.301 128.306 254.924 128.306 251.041C128.306 247.158 143.669 243.782 162.746 243.782C181.654 243.782 197.017 246.989 197.017 251.041Z" fill="#719D8D"/>
<path opacity="0.7901" d="M196.511 251.041C196.511 254.924 181.317 258.132 162.746 258.132C144.007 258.132 128.981 254.924 128.981 251.041C128.981 247.158 144.176 243.95 162.746 243.95C181.317 243.95 196.511 247.158 196.511 251.041Z" fill="#709C8C"/>
<path opacity="0.7956" d="M195.836 251.041C195.836 254.924 180.979 257.963 162.577 257.963C144.176 257.963 129.319 254.924 129.319 251.041C129.319 247.158 144.176 244.119 162.577 244.119C180.979 244.119 195.836 247.327 195.836 251.041Z" fill="#6F9C8C"/>
<path opacity="0.8011" d="M195.16 251.041C195.16 254.755 180.473 257.794 162.409 257.794C144.344 257.794 129.657 254.755 129.657 251.041C129.657 247.327 144.344 244.288 162.409 244.288C180.642 244.288 195.16 247.327 195.16 251.041Z" fill="#6E9B8B"/>
<path opacity="0.8066" d="M194.654 251.041C194.654 254.755 180.304 257.625 162.577 257.625C144.851 257.625 130.501 254.586 130.501 251.041C130.501 247.327 144.851 244.457 162.577 244.457C180.304 244.457 194.654 247.496 194.654 251.041Z" fill="#6D9A8A"/>
<path opacity="0.8122" d="M193.979 251.21C193.979 254.755 179.797 257.794 162.409 257.794C145.02 257.794 130.839 254.924 130.839 251.21C130.839 247.665 145.02 244.795 162.409 244.795C179.797 244.626 193.979 247.496 193.979 251.21Z" fill="#6C9989"/>
<path opacity="0.8177" d="M193.472 251.21C193.472 254.755 179.629 257.625 162.409 257.625C145.189 257.625 131.345 254.755 131.345 251.21C131.345 247.665 145.189 244.795 162.409 244.795C179.46 244.795 193.472 247.665 193.472 251.21Z" fill="#6B9988"/>
<path opacity="0.8232" d="M192.797 251.21C192.797 254.586 179.122 257.456 162.409 257.456C145.526 257.456 132.02 254.755 132.02 251.21C132.02 247.833 145.695 244.963 162.409 244.963C179.122 244.963 192.797 247.833 192.797 251.21Z" fill="#6A9888"/>
<path opacity="0.8287" d="M192.122 251.21C192.122 254.586 178.784 257.288 162.24 257.288C145.695 257.288 132.358 254.586 132.358 251.21C132.358 247.833 145.695 245.132 162.24 245.132C178.784 245.132 192.122 247.833 192.122 251.21Z" fill="#699787"/>
<path opacity="0.8343" d="M191.615 251.21C191.615 254.586 178.447 257.119 162.24 257.119C146.033 257.119 132.864 254.418 132.864 251.21C132.864 248.002 146.033 245.301 162.24 245.301C178.447 245.301 191.615 248.002 191.615 251.21Z" fill="#689786"/>
<path opacity="0.8398" d="M190.94 251.21C190.94 254.418 178.109 256.95 162.24 256.95C146.37 256.95 133.54 254.418 133.54 251.21C133.54 248.002 146.37 245.47 162.24 245.47C178.109 245.47 190.94 248.002 190.94 251.21Z" fill="#679685"/>
<path opacity="0.8453" d="M190.264 251.21C190.264 254.418 177.603 256.95 162.071 256.95C146.539 256.95 133.877 254.418 133.877 251.21C133.877 248.171 146.539 245.639 162.071 245.639C177.772 245.639 190.264 248.171 190.264 251.21Z" fill="#669584"/>
<path opacity="0.8508" d="M189.758 251.379C189.758 254.418 177.434 256.95 162.071 256.95C146.708 256.95 134.384 254.418 134.384 251.379C134.384 248.34 146.708 245.808 162.071 245.808C177.265 245.808 189.758 248.34 189.758 251.379Z" fill="#659584"/>
<path opacity="0.8564" d="M189.083 251.379C189.083 254.418 176.927 256.781 162.071 256.781C147.046 256.781 135.059 254.418 135.059 251.379C135.059 248.509 147.214 245.976 162.071 245.976C176.927 245.976 189.083 248.34 189.083 251.379Z" fill="#649483"/>
<path opacity="0.8619" d="M188.407 251.379C188.407 254.249 176.59 256.612 161.902 256.612C147.214 256.612 135.397 254.249 135.397 251.379C135.397 248.509 147.214 246.145 161.902 246.145C176.59 246.145 188.407 248.509 188.407 251.379Z" fill="#639382"/>
<path opacity="0.8674" d="M187.901 251.379C187.901 254.249 176.252 256.443 161.902 256.443C147.552 256.443 135.903 254.249 135.903 251.379C135.903 248.509 147.552 246.314 161.902 246.314C176.252 246.314 187.901 248.509 187.901 251.379Z" fill="#629381"/>
<path opacity="0.8729" d="M187.226 251.379C187.226 254.08 175.914 256.275 161.902 256.275C147.89 256.275 136.578 254.08 136.578 251.379C136.578 248.678 147.89 246.483 161.902 246.483C175.914 246.483 187.226 248.678 187.226 251.379Z" fill="#619280"/>
<path opacity="0.8785" d="M186.719 251.379C186.719 254.08 175.577 256.275 161.902 256.275C148.227 256.275 137.085 254.08 137.085 251.379C137.085 248.678 148.227 246.652 161.902 246.652C175.577 246.652 186.719 248.846 186.719 251.379Z" fill="#609180"/>
<path opacity="0.884" d="M186.044 251.379C186.044 253.911 175.239 256.106 161.733 256.106C148.396 256.106 137.423 254.08 137.423 251.379C137.423 248.846 148.227 246.652 161.733 246.652C175.239 246.821 186.044 248.846 186.044 251.379Z" fill="#5F917F"/>
<path opacity="0.8895" d="M185.369 251.548C185.369 254.08 174.733 256.106 161.733 256.106C148.565 256.106 137.929 254.08 137.929 251.548C137.929 249.015 148.565 246.989 161.733 246.989C174.733 246.989 185.369 249.015 185.369 251.548Z" fill="#5E907E"/>
<path opacity="0.895" d="M184.862 251.548C184.862 253.911 174.564 255.937 161.733 255.937C148.903 255.937 138.604 253.911 138.604 251.548C138.604 249.184 148.903 247.158 161.733 247.158C174.395 247.158 184.862 249.015 184.862 251.548Z" fill="#5D8F7D"/>
<path opacity="0.9006" d="M184.187 251.548C184.187 253.911 174.057 255.768 161.564 255.768C149.071 255.768 138.942 253.911 138.942 251.548C138.942 249.184 149.071 247.327 161.564 247.327C174.057 247.327 184.187 249.184 184.187 251.548Z" fill="#5C8E7C"/>
<path opacity="0.9061" d="M183.512 251.548C183.512 253.911 173.72 255.599 161.564 255.599C149.409 255.599 139.448 253.742 139.448 251.548C139.448 249.353 149.24 247.496 161.564 247.496C173.72 247.496 183.512 249.353 183.512 251.548Z" fill="#5B8E7C"/>
<path opacity="0.9116" d="M183.005 251.548C183.005 253.742 173.382 255.599 161.564 255.599C149.747 255.599 140.124 253.911 140.124 251.548C140.124 249.353 149.747 247.665 161.564 247.665C173.382 247.665 183.005 249.353 183.005 251.548Z" fill="#5A8D7B"/>
<path opacity="0.9171" d="M182.33 251.548C182.33 253.742 173.044 255.431 161.396 255.431C149.916 255.431 140.461 253.742 140.461 251.548C140.461 249.522 149.747 247.665 161.396 247.665C173.044 247.833 182.33 249.522 182.33 251.548Z" fill="#598C7A"/>
<path opacity="0.9227" d="M181.654 251.548C181.654 253.573 172.538 255.262 161.396 255.262C150.084 255.262 140.968 253.573 140.968 251.548C140.968 249.522 150.084 247.833 161.396 247.833C172.707 248.002 181.654 249.522 181.654 251.548Z" fill="#588C79"/>
<path opacity="0.9282" d="M181.148 251.716C181.148 253.742 172.369 255.262 161.396 255.262C150.422 255.262 141.643 253.742 141.643 251.716C141.643 249.691 150.422 248.171 161.396 248.171C172.2 248.171 181.148 249.691 181.148 251.716Z" fill="#578B78"/>
<path opacity="0.9337" d="M180.473 251.716C180.473 253.573 171.863 255.093 161.227 255.093C150.591 255.093 141.981 253.573 141.981 251.716C141.981 249.859 150.591 248.34 161.227 248.34C171.863 248.34 180.473 249.859 180.473 251.716Z" fill="#568A78"/>
<path opacity="0.9392" d="M179.966 251.716C179.966 253.573 171.525 254.924 161.227 254.924C150.928 254.924 142.487 253.405 142.487 251.716C142.487 249.859 150.76 248.509 161.227 248.509C171.525 248.509 179.966 249.859 179.966 251.716Z" fill="#558A77"/>
<path opacity="0.9448" d="M179.291 251.716C179.291 253.405 171.187 254.924 161.227 254.924C151.266 254.924 143.163 253.573 143.163 251.716C143.163 250.028 151.266 248.678 161.227 248.678C171.187 248.509 179.291 250.028 179.291 251.716Z" fill="#548976"/>
<path opacity="0.9503" d="M178.616 251.716C178.616 253.405 170.681 254.755 161.058 254.755C151.435 254.755 143.5 253.405 143.5 251.716C143.5 250.028 151.266 248.678 161.058 248.678C170.85 248.678 178.616 250.028 178.616 251.716Z" fill="#538875"/>
<path opacity="0.9558" d="M178.109 251.716C178.109 253.236 170.512 254.586 161.058 254.586C151.604 254.586 144.007 253.236 144.007 251.716C144.007 250.197 151.604 248.846 161.058 248.846C170.512 248.846 178.109 250.197 178.109 251.716Z" fill="#528874"/>
<path opacity="0.9613" d="M177.434 251.716C177.434 253.236 170.006 254.418 161.058 254.418C151.941 254.418 144.682 253.236 144.682 251.716C144.682 250.197 152.11 249.015 161.058 249.015C170.006 249.015 177.434 250.366 177.434 251.716Z" fill="#518774"/>
<path opacity="0.9669" d="M176.759 251.716C176.759 253.236 169.668 254.249 160.889 254.249C152.11 254.249 145.02 253.067 145.02 251.716C145.02 250.366 152.11 249.184 160.889 249.184C169.668 249.184 176.759 250.366 176.759 251.716Z" fill="#508673"/>
<path opacity="0.9724" d="M176.252 251.885C176.252 253.236 169.33 254.249 160.889 254.249C152.448 254.249 145.526 253.236 145.526 251.885C145.526 250.535 152.448 249.522 160.889 249.522C169.33 249.353 176.252 250.535 176.252 251.885Z" fill="#4F8572"/>
<path opacity="0.9779" d="M175.577 251.885C175.577 253.236 168.993 254.249 160.889 254.249C152.786 254.249 146.201 253.236 146.201 251.885C146.201 250.703 152.786 249.69 160.889 249.69C168.993 249.522 175.577 250.535 175.577 251.885Z" fill="#4E8571"/>
<path opacity="0.9834" d="M175.07 251.885C175.07 253.067 168.655 254.08 160.889 254.08C153.123 254.08 146.708 253.067 146.708 251.885C146.708 250.703 153.123 249.69 160.889 249.69C168.655 249.69 175.07 250.703 175.07 251.885Z" fill="#4D8470"/>
<path opacity="0.989" d="M174.395 251.885C174.395 253.067 168.317 253.911 160.72 253.911C153.123 253.911 147.046 253.067 147.046 251.885C147.046 250.872 153.123 249.859 160.72 249.859C168.317 249.859 174.395 250.872 174.395 251.885Z" fill="#4C8370"/>
<path opacity="0.9945" d="M173.72 251.885C173.72 252.898 167.811 253.742 160.72 253.742C153.461 253.742 147.721 252.898 147.721 251.885C147.721 250.872 153.63 250.028 160.72 250.028C167.98 250.028 173.72 250.872 173.72 251.885Z" fill="#4B836F"/>
<path d="M173.213 251.885C173.213 252.898 167.642 253.573 160.72 253.573C153.798 253.573 148.227 252.729 148.227 251.885C148.227 250.872 153.798 250.197 160.72 250.197C167.473 250.197 173.213 251.041 173.213 251.885Z" fill="#4A826E"/>
</g>
<path d="M185.031 230.445L173.889 190.264L152.786 189.42L141.981 229.938C131.007 231.964 123.748 235.509 123.748 239.561C123.748 245.808 140.799 250.872 162.071 250.872C183.343 250.872 200.394 245.808 200.394 239.561C200.394 235.847 194.316 232.639 185.031 230.445Z" fill="#233D33"/>
<path d="M256.443 192.628C256.275 198.368 251.379 203.095 245.301 202.926L81.0354 200.225C74.9578 200.056 70.2307 195.329 70.2307 189.589L87.7884 113.787C92.3466 101.125 101.632 98.2555 107.71 98.2555L216.263 100.113C230.951 100.281 235.34 109.567 236.691 114.463C245.301 143.163 256.443 192.628 256.443 192.628Z" fill="#233D33"/>
<path d="M256.612 187.563C256.443 193.303 251.548 198.03 245.47 197.862L81.2043 195.16C75.1266 194.992 70.3995 190.264 70.3995 184.524L87.9572 108.723C92.5155 96.0608 101.801 93.1908 107.878 93.1908L216.432 95.0478C231.12 95.2166 235.509 104.502 236.86 109.398C245.47 138.267 256.612 187.563 256.612 187.563Z" fill="#518C75"/>
<path d="M245.301 181.317C245.132 186.382 240.912 190.433 235.509 190.433L91.1649 188.07C85.9313 187.901 81.7108 183.68 81.7108 178.616L97.2425 111.93C101.294 100.788 109.398 98.2555 114.8 98.2555L210.186 99.7749C223.185 99.9437 226.899 108.047 228.25 112.437C235.509 137.76 245.301 181.317 245.301 181.317Z" fill="#33594B"/>
<path d="M240.574 178.447C240.574 183.343 236.353 187.226 231.458 187.226L95.3855 185.031C90.3208 185.031 86.4378 180.979 86.4378 175.914L101.125 111.93C104.84 101.294 112.605 98.762 117.67 98.9308L207.485 100.45C219.64 100.619 223.185 108.385 224.367 112.606C231.289 136.916 240.574 178.447 240.574 178.447Z" fill="#79C0C9"/>
<path d="M114.969 102.138C113.45 99.7749 105.853 111.255 105.008 112.943C101.97 119.19 101.97 126.28 100.113 132.864C98.762 137.929 95.0478 148.059 102.814 149.578C107.541 150.591 111.424 146.033 115.307 144.007C120.709 140.968 125.943 141.306 132.02 141.137C143.669 140.968 154.98 134.384 165.785 130.332C172.707 127.8 182.161 123.748 185.706 116.826C190.433 107.541 175.914 102.645 168.993 101.294C161.396 99.7749 153.123 100.113 145.526 99.7749C140.293 99.6061 135.059 99.6061 129.826 99.7749C124.423 99.9437 117.67 99.6061 112.943 102.138H114.969Z" fill="#86D6D9"/>
<path d="M115.476 102.983C108.047 105.008 94.7102 132.527 105.684 135.566C109.398 136.579 111.593 133.033 114.125 131.007C118.514 127.462 122.06 127.293 127.462 126.787C132.864 126.111 137.591 123.579 142.487 121.553C146.539 119.865 151.266 118.346 154.811 115.982C158.188 113.787 160.551 109.567 156.5 106.865C152.448 103.995 146.201 103.827 141.306 102.983C134.046 101.801 126.28 101.463 119.021 101.801C117.501 101.801 115.476 102.138 114.8 103.32L115.476 102.983Z" fill="#8EE0E0"/>
<path opacity="0.3" d="M198.874 102.645C201.407 105.346 202.082 108.047 201.069 111.593C200.394 114.294 199.212 116.657 199.043 119.527C198.874 122.228 200.056 124.423 200.225 127.124C200.563 132.864 196.68 137.085 194.316 141.981C191.784 147.046 190.096 152.279 186.719 156.837C180.641 165.11 172.369 171.863 163.759 177.603C159.876 180.304 155.993 181.654 151.941 183.512C165.785 183.512 179.629 183.68 193.472 183.849C201.238 184.018 208.835 184.018 216.601 184.524C221.834 184.862 227.237 185.369 232.302 184.187C241.249 181.992 237.029 169.837 236.016 163.253C235.172 157.681 234.665 151.773 233.146 146.37C231.626 140.799 228.756 135.734 227.406 130.332C225.886 124.761 224.198 119.865 222.172 114.631C220.822 111.255 219.809 107.878 217.107 105.346C214.237 102.645 210.692 101.801 206.809 101.463C204.614 101.294 199.719 102.307 198.199 100.619L198.874 102.645Z" fill="#79C0C9"/>
<path opacity="0.3" d="M187.226 102.307C193.472 104.333 192.122 117.164 191.953 121.891C191.446 132.696 186.719 141.812 177.772 148.227C162.746 159.201 142.825 165.785 124.423 164.603C119.865 164.266 113.281 163.928 109.229 161.396C106.359 159.707 105.853 156.162 102.983 154.811C95.7231 151.266 92.3467 168.993 91.6714 173.889C89.6455 188.914 118.514 184.018 126.618 184.187C144.007 184.356 161.564 184.862 178.784 183.005C192.29 181.654 205.459 180.473 219.302 180.642C223.523 180.642 229.094 181.148 232.639 178.278C236.691 174.902 235.34 169.668 234.328 165.279C231.458 152.954 227.068 140.968 223.86 128.813C222.172 122.566 221.328 116.488 217.276 111.086C213.9 106.359 209.51 104.84 203.939 103.489C199.043 102.307 190.264 100.619 185.537 102.814L187.226 102.307Z" fill="#79C0C9"/>
<path opacity="0.5" d="M213.225 108.047C218.12 108.385 218.627 131.176 218.965 134.89C219.64 143.331 221.497 153.461 219.302 161.733C217.952 166.629 215.588 172.369 211.705 175.577C210.692 176.421 208.16 177.434 208.16 178.953C208.16 181.486 211.705 182.161 213.393 182.33C219.302 183.512 226.73 183.849 232.808 183.174C239.055 182.499 237.535 175.577 235.847 170.85C231.289 157.175 229.432 142.487 225.886 128.644C225.042 125.267 223.354 122.228 222.51 118.852C222.003 116.826 221.328 114.463 220.315 112.774C219.302 111.086 217.783 109.904 216.263 108.723C215.082 107.878 212.549 107.203 212.043 106.359L213.225 108.047Z" fill="#86D6D9"/>
<path d="M132.02 98.0867L113.956 189.758L127.968 190.602L139.786 97.5802L132.02 98.0867Z" fill="#518C75"/>
<path d="M192.966 99.0996L207.991 191.277L194.147 191.615L185.369 98.4243L192.966 99.0996Z" fill="#518C75"/>
<path d="M92.6092 117.19L92.4938 124.111L234.967 126.488L235.082 119.566L92.6092 117.19Z" fill="#518C75"/>
<path d="M85.4696 149.459L85.3235 158.237L245.69 160.906L245.836 152.128L85.4696 149.459Z" fill="#518C75"/>
<path d="M100.281 97.2425C94.2037 96.0608 90.6584 109.398 88.9702 113.618C85.5937 121.722 83.9054 131.176 82.386 139.786C81.0354 148.565 78.5031 157.175 76.8148 165.785C76.1395 169.499 75.2954 173.382 74.9578 177.265C74.789 179.797 73.2695 184.862 75.1266 186.888C78.1654 183.343 78.8407 175.239 80.1913 170.85C81.7107 165.785 82.7237 160.045 84.9184 155.149C86.269 152.11 87.1131 150.591 87.2819 147.214C87.2819 142.656 87.7884 138.436 88.8013 134.046C90.4896 125.774 92.6843 117.501 96.0608 109.736C97.4114 106.359 99.6061 103.32 102.814 101.463C104.502 100.45 109.735 99.6061 110.58 97.9178C110.748 97.4114 110.917 97.2425 110.748 96.5672C107.71 94.879 100.619 95.2166 98.5931 98.762L100.281 97.2425Z" fill="#5FA289"/>
<path d="M225.549 103.489C228.588 103.658 228.588 107.878 228.925 110.073C229.263 111.593 229.6 112.943 230.445 114.125C231.12 115.138 232.471 115.476 233.146 116.488C234.665 118.683 233.821 122.735 234.159 125.098C234.496 128.475 235.172 131.514 236.522 134.553C240.236 142.994 242.431 151.941 244.963 160.72C247.158 168.149 249.015 176.252 252.223 183.174C252.223 166.123 245.976 149.747 242.6 133.202C241.249 126.787 238.379 121.047 237.029 114.969C236.016 110.58 235.003 104.164 229.938 102.983C228.419 102.645 226.899 102.645 225.211 102.983L225.549 103.489Z" fill="#5FA289"/>
<path d="M98.4243 98.2555C92.009 99.6061 88.8014 115.982 89.139 121.216C90.3208 114.463 94.7102 103.658 101.126 100.45C102.983 99.4373 107.878 98.0867 103.32 96.9049C100.281 96.0608 98.2555 98.5931 96.3984 100.281L98.4243 98.2555Z" fill="#76CAAA"/>
<path d="M223.016 101.632C227.237 99.4373 229.263 107.541 230.782 110.242C233.483 114.8 234.834 121.216 236.016 126.28C237.873 134.553 239.561 142.825 241.925 151.097C243.782 157.513 244.119 166.46 247.833 172.2C248.34 168.655 247.158 164.603 246.652 161.227C245.976 156.162 244.795 151.097 243.951 146.033C242.431 137.254 240.574 128.644 237.366 120.203C234.665 112.774 234.496 100.113 223.523 100.957L223.016 101.632Z" fill="#76CAAA"/>
<path d="M248.678 184.018C251.041 189.927 239.055 188.914 236.691 189.927C235.003 190.602 233.99 192.29 232.133 192.797C229.6 193.303 226.393 191.277 224.029 190.94C220.315 190.264 216.432 191.109 212.718 191.109C206.64 191.109 200.563 191.446 194.485 191.109C184.187 190.433 174.226 189.42 163.928 189.927C158.863 190.096 153.967 190.602 148.903 190.602C146.37 190.602 144.007 190.602 141.474 190.433C137.76 190.264 132.527 189.252 128.981 190.433C128.306 190.602 127.8 190.771 127.293 190.94C129.319 192.966 135.228 192.797 138.098 192.966C144.682 193.641 151.266 193.979 157.682 194.485C166.967 195.16 176.252 194.485 185.537 194.992C197.693 195.498 209.679 196.173 221.835 196.849C226.393 197.017 231.12 196.849 235.678 196.849C239.055 196.849 242.938 197.524 246.145 196.68C251.041 195.498 256.106 191.109 253.236 185.537C252.561 184.356 252.054 183.343 250.535 183.68L248.678 184.018Z" fill="#5FA289"/>
<path d="M250.028 182.161C251.379 184.862 246.989 185.369 245.301 185.875C243.106 186.55 242.431 187.563 240.743 188.745C238.379 190.433 236.86 189.758 233.99 189.927C231.964 189.927 229.938 190.771 228.081 190.94C223.016 191.446 217.783 192.29 212.718 192.966C206.472 193.81 199.55 193.134 193.472 194.485C209.51 194.147 225.886 197.355 241.925 195.836C245.132 195.498 251.379 194.147 252.392 190.433C252.898 188.407 252.054 183.174 250.028 183.343V182.161Z" fill="#76CAAA"/>
<path d="M231.458 120.54C226.393 119.19 222.341 119.358 217.614 120.878C213.393 122.397 208.329 120.203 203.939 119.527C194.992 118.346 186.55 120.203 177.603 120.034C169.162 119.865 160.889 119.19 152.279 119.358C147.214 119.527 142.487 119.527 137.423 119.358C133.371 119.19 129.15 120.371 125.267 120.034C132.864 120.203 140.63 121.216 148.227 121.722C154.812 122.228 161.564 122.397 168.317 122.566C178.109 122.904 187.732 121.553 197.524 122.566C206.303 123.579 215.082 122.566 223.692 123.917C226.055 124.254 229.432 125.098 231.458 123.41C233.821 121.553 232.302 119.865 229.938 119.19L231.458 120.54Z" fill="#5FA289"/>
<path d="M237.873 153.292C233.483 154.136 229.432 152.954 225.211 154.474C221.159 155.824 217.276 154.643 213.056 154.474C204.108 153.967 195.498 153.63 186.55 152.617C175.577 151.435 164.941 151.604 153.799 151.604C145.864 151.773 137.254 149.747 129.488 151.604C132.527 154.474 140.799 153.461 144.682 153.799C150.76 154.136 156.5 154.305 162.577 154.98C169.837 155.824 177.096 156.331 184.356 156.837C186.888 157.006 189.589 156.837 192.122 157.175C195.16 157.681 194.316 157.681 194.316 160.045C194.316 162.746 195.667 174.226 198.875 175.408C199.043 172.538 199.55 169.837 199.719 167.136C199.719 165.279 199.212 162.577 200.056 160.889C201.913 157.006 209.679 158.694 213.056 158.694C219.809 158.694 226.73 158.357 233.315 157.681C234.496 157.513 237.704 157.681 238.548 156.5C240.068 154.474 237.029 152.954 235.34 153.123L237.873 153.292Z" fill="#5FA289"/>
<path d="M188.914 120.371C187.563 118.177 180.473 119.527 178.278 119.19C173.044 118.683 167.304 117.333 162.24 118.683C163.59 120.203 167.811 120.034 169.837 120.371C173.044 120.878 176.252 121.047 179.46 121.384C182.33 121.553 187.732 122.735 189.758 120.203C189.589 119.696 189.42 120.203 189.083 120.034L188.914 120.371Z" fill="#76CAAA"/>
<path d="M234.496 154.136C230.613 153.967 226.73 152.954 222.847 153.292C219.809 153.461 217.445 154.811 214.237 154.474C207.822 153.63 202.082 152.954 195.667 153.461C187.563 153.967 179.629 153.967 171.525 154.305C167.811 154.474 164.097 154.474 160.383 154.474C157.344 154.474 153.123 153.799 150.253 155.149C162.746 154.98 175.07 156.669 187.563 156.162C191.784 155.993 196.004 155.824 200.225 155.824C202.589 155.824 206.809 155.149 208.666 156.331C205.459 158.357 201.069 158.526 199.043 161.902C201.744 160.72 203.264 158.694 206.303 158.019C209.679 157.344 213.224 157.85 216.601 157.85C220.484 157.85 223.86 156.331 227.743 155.993C230.444 155.656 233.652 156.162 236.016 154.474C235.509 153.461 234.159 153.799 233.315 153.63L234.496 154.136Z" fill="#76CAAA"/>
<path opacity="0.4" d="M178.109 164.097C174.226 163.084 169.499 163.928 165.447 164.434C159.707 165.11 148.227 165.447 145.02 171.187C140.124 180.135 168.149 177.772 172.2 177.096C175.746 176.421 182.836 174.733 183.343 170.006C183.849 165.616 178.616 165.11 176.083 163.759L178.109 164.097Z" fill="#8EE0E0"/>
<path opacity="0.4" d="M125.605 102.307C121.722 99.0996 113.112 106.528 110.917 109.398C105.853 115.982 112.268 113.281 116.826 112.605C120.203 112.099 124.423 111.255 126.618 108.047C127.8 106.359 128.475 101.97 125.605 101.801V102.307Z" fill="white"/>
<path opacity="0.4" d="M185.031 163.421C189.252 168.824 176.59 173.551 173.551 174.395C164.097 177.096 154.136 176.759 144.344 177.434C156.669 178.616 171.019 183.68 182.836 178.109C188.407 175.408 189.927 167.304 184.862 163.084L185.031 163.421Z" fill="white"/>
<path opacity="0.5" d="M172.2 203.095C172.2 219.471 161.564 232.302 146.201 237.198C144.344 237.873 142.318 238.548 140.293 239.055C138.773 239.561 136.072 239.392 134.721 240.405C131.007 243.106 139.111 244.626 141.306 245.132C149.916 246.82 158.526 247.833 167.304 247.833C173.044 247.833 178.953 246.989 184.356 245.47C186.719 244.963 189.252 244.795 191.446 243.782C193.134 243.106 194.485 241.418 196.173 241.08C197.186 237.029 188.914 235.172 186.55 233.483C183.005 231.12 182.161 227.743 181.148 223.523C179.966 218.965 178.953 214.575 177.434 210.186C176.759 208.329 176.252 206.134 175.239 204.277C174.564 203.264 171.863 200.563 172.2 203.433V203.095Z" fill="#233D33"/>
<path opacity="0.3" d="M153.461 203.602C150.253 212.212 150.084 230.276 163.421 229.094C174.226 228.081 177.94 213.731 175.239 204.952C174.733 209.342 177.265 215.082 177.94 219.471C178.447 223.354 178.616 228.588 181.823 230.951C185.706 233.821 199.212 238.042 189.252 243.275C180.81 247.665 170.006 246.483 160.72 246.989C152.448 247.496 144.682 247.833 136.578 246.652C133.54 246.145 128.137 244.626 126.787 241.587C124.423 235.847 136.072 233.821 139.448 232.47C141.981 231.458 144.344 230.445 145.357 228.081C146.539 225.211 146.877 221.835 147.721 218.796C148.565 215.757 149.24 212.549 150.084 209.51C150.591 207.991 152.786 203.433 152.448 202.589L153.461 203.602Z" fill="#233D33"/>
<path opacity="0.3" d="M150.928 201.576C150.928 201.407 150.422 201.576 150.76 201.069C157.344 200.732 163.928 201.238 170.512 201.238C171.694 201.238 174.226 200.732 175.239 201.238C177.265 202.251 176.421 203.433 176.252 205.459C175.914 211.199 180.473 220.484 175.746 225.042C174.057 221.835 174.057 213.731 169.837 212.38C168.149 211.705 166.798 213.056 164.941 212.38C163.253 211.874 162.577 210.186 161.396 209.173C159.37 207.653 157.344 206.64 155.318 204.952C154.136 204.108 150.928 201.407 150.422 201.238L150.928 201.576Z" fill="#233D33"/>
</g>
<defs>
<clipPath id="clip0_72_665">
<rect width="300" height="274.676" fill="white"/>
</clipPath>
</defs>
</svg>
